%TF.GenerationSoftware,KiCad,Pcbnew,5.1.4-5.1.4*%
%TF.CreationDate,2019-08-18T00:14:31+10:00*%
%TF.ProjectId,ttlclock,74746c63-6c6f-4636-9b2e-6b696361645f,rev?*%
%TF.SameCoordinates,Original*%
%TF.FileFunction,Legend,Top*%
%TF.FilePolarity,Positive*%
%FSLAX46Y46*%
G04 Gerber Fmt 4.6, Leading zero omitted, Abs format (unit mm)*
G04 Created by KiCad (PCBNEW 5.1.4-5.1.4) date 2019-08-18 00:14:31*
%MOMM*%
%LPD*%
G04 APERTURE LIST*
%ADD10C,0.150000*%
%ADD11C,0.300000*%
%ADD12C,0.120000*%
%ADD13C,0.010000*%
G04 APERTURE END LIST*
D10*
X152209523Y-123912380D02*
X151733333Y-123912380D01*
X151685714Y-124388571D01*
X151733333Y-124340952D01*
X151828571Y-124293333D01*
X152066666Y-124293333D01*
X152161904Y-124340952D01*
X152209523Y-124388571D01*
X152257142Y-124483809D01*
X152257142Y-124721904D01*
X152209523Y-124817142D01*
X152161904Y-124864761D01*
X152066666Y-124912380D01*
X151828571Y-124912380D01*
X151733333Y-124864761D01*
X151685714Y-124817142D01*
X152542857Y-123912380D02*
X152876190Y-124912380D01*
X153209523Y-123912380D01*
X166187619Y-86812380D02*
X166187619Y-85812380D01*
X166187619Y-86288571D02*
X166759047Y-86288571D01*
X166759047Y-86812380D02*
X166759047Y-85812380D01*
X167378095Y-86812380D02*
X167282857Y-86764761D01*
X167235238Y-86717142D01*
X167187619Y-86621904D01*
X167187619Y-86336190D01*
X167235238Y-86240952D01*
X167282857Y-86193333D01*
X167378095Y-86145714D01*
X167520952Y-86145714D01*
X167616190Y-86193333D01*
X167663809Y-86240952D01*
X167711428Y-86336190D01*
X167711428Y-86621904D01*
X167663809Y-86717142D01*
X167616190Y-86764761D01*
X167520952Y-86812380D01*
X167378095Y-86812380D01*
X168282857Y-86812380D02*
X168187619Y-86764761D01*
X168140000Y-86669523D01*
X168140000Y-85812380D01*
X169092380Y-86812380D02*
X169092380Y-85812380D01*
X169092380Y-86764761D02*
X168997142Y-86812380D01*
X168806666Y-86812380D01*
X168711428Y-86764761D01*
X168663809Y-86717142D01*
X168616190Y-86621904D01*
X168616190Y-86336190D01*
X168663809Y-86240952D01*
X168711428Y-86193333D01*
X168806666Y-86145714D01*
X168997142Y-86145714D01*
X169092380Y-86193333D01*
X166116190Y-99464761D02*
X166259047Y-99512380D01*
X166497142Y-99512380D01*
X166592380Y-99464761D01*
X166640000Y-99417142D01*
X166687619Y-99321904D01*
X166687619Y-99226666D01*
X166640000Y-99131428D01*
X166592380Y-99083809D01*
X166497142Y-99036190D01*
X166306666Y-98988571D01*
X166211428Y-98940952D01*
X166163809Y-98893333D01*
X166116190Y-98798095D01*
X166116190Y-98702857D01*
X166163809Y-98607619D01*
X166211428Y-98560000D01*
X166306666Y-98512380D01*
X166544761Y-98512380D01*
X166687619Y-98560000D01*
X167259047Y-99512380D02*
X167163809Y-99464761D01*
X167116190Y-99369523D01*
X167116190Y-98512380D01*
X167782857Y-99512380D02*
X167687619Y-99464761D01*
X167640000Y-99417142D01*
X167592380Y-99321904D01*
X167592380Y-99036190D01*
X167640000Y-98940952D01*
X167687619Y-98893333D01*
X167782857Y-98845714D01*
X167925714Y-98845714D01*
X168020952Y-98893333D01*
X168068571Y-98940952D01*
X168116190Y-99036190D01*
X168116190Y-99321904D01*
X168068571Y-99417142D01*
X168020952Y-99464761D01*
X167925714Y-99512380D01*
X167782857Y-99512380D01*
X168449523Y-98845714D02*
X168640000Y-99512380D01*
X168830476Y-99036190D01*
X169020952Y-99512380D01*
X169211428Y-98845714D01*
X166640000Y-111688571D02*
X166306666Y-111688571D01*
X166306666Y-112212380D02*
X166306666Y-111212380D01*
X166782857Y-111212380D01*
X167592380Y-112212380D02*
X167592380Y-111688571D01*
X167544761Y-111593333D01*
X167449523Y-111545714D01*
X167259047Y-111545714D01*
X167163809Y-111593333D01*
X167592380Y-112164761D02*
X167497142Y-112212380D01*
X167259047Y-112212380D01*
X167163809Y-112164761D01*
X167116190Y-112069523D01*
X167116190Y-111974285D01*
X167163809Y-111879047D01*
X167259047Y-111831428D01*
X167497142Y-111831428D01*
X167592380Y-111783809D01*
X168020952Y-112164761D02*
X168116190Y-112212380D01*
X168306666Y-112212380D01*
X168401904Y-112164761D01*
X168449523Y-112069523D01*
X168449523Y-112021904D01*
X168401904Y-111926666D01*
X168306666Y-111879047D01*
X168163809Y-111879047D01*
X168068571Y-111831428D01*
X168020952Y-111736190D01*
X168020952Y-111688571D01*
X168068571Y-111593333D01*
X168163809Y-111545714D01*
X168306666Y-111545714D01*
X168401904Y-111593333D01*
X168735238Y-111545714D02*
X169116190Y-111545714D01*
X168878095Y-111212380D02*
X168878095Y-112069523D01*
X168925714Y-112164761D01*
X169020952Y-112212380D01*
X169116190Y-112212380D01*
D11*
X143257142Y-46158571D02*
X144114285Y-46158571D01*
X143685714Y-47658571D02*
X143685714Y-46158571D01*
X144400000Y-46158571D02*
X145257142Y-46158571D01*
X144828571Y-47658571D02*
X144828571Y-46158571D01*
X146471428Y-47658571D02*
X145757142Y-47658571D01*
X145757142Y-46158571D01*
X148114285Y-47658571D02*
X148114285Y-46158571D01*
X148114285Y-46730000D02*
X148257142Y-46658571D01*
X148542857Y-46658571D01*
X148685714Y-46730000D01*
X148757142Y-46801428D01*
X148828571Y-46944285D01*
X148828571Y-47372857D01*
X148757142Y-47515714D01*
X148685714Y-47587142D01*
X148542857Y-47658571D01*
X148257142Y-47658571D01*
X148114285Y-47587142D01*
X149471428Y-47658571D02*
X149471428Y-46658571D01*
X149471428Y-46158571D02*
X149400000Y-46230000D01*
X149471428Y-46301428D01*
X149542857Y-46230000D01*
X149471428Y-46158571D01*
X149471428Y-46301428D01*
X150185714Y-46658571D02*
X150185714Y-47658571D01*
X150185714Y-46801428D02*
X150257142Y-46730000D01*
X150400000Y-46658571D01*
X150614285Y-46658571D01*
X150757142Y-46730000D01*
X150828571Y-46872857D01*
X150828571Y-47658571D01*
X152185714Y-47658571D02*
X152185714Y-46872857D01*
X152114285Y-46730000D01*
X151971428Y-46658571D01*
X151685714Y-46658571D01*
X151542857Y-46730000D01*
X152185714Y-47587142D02*
X152042857Y-47658571D01*
X151685714Y-47658571D01*
X151542857Y-47587142D01*
X151471428Y-47444285D01*
X151471428Y-47301428D01*
X151542857Y-47158571D01*
X151685714Y-47087142D01*
X152042857Y-47087142D01*
X152185714Y-47015714D01*
X152900000Y-47658571D02*
X152900000Y-46658571D01*
X152900000Y-46944285D02*
X152971428Y-46801428D01*
X153042857Y-46730000D01*
X153185714Y-46658571D01*
X153328571Y-46658571D01*
X153685714Y-46658571D02*
X154042857Y-47658571D01*
X154400000Y-46658571D02*
X154042857Y-47658571D01*
X153900000Y-48015714D01*
X153828571Y-48087142D01*
X153685714Y-48158571D01*
X156757142Y-47587142D02*
X156614285Y-47658571D01*
X156328571Y-47658571D01*
X156185714Y-47587142D01*
X156114285Y-47515714D01*
X156042857Y-47372857D01*
X156042857Y-46944285D01*
X156114285Y-46801428D01*
X156185714Y-46730000D01*
X156328571Y-46658571D01*
X156614285Y-46658571D01*
X156757142Y-46730000D01*
X157614285Y-47658571D02*
X157471428Y-47587142D01*
X157400000Y-47444285D01*
X157400000Y-46158571D01*
X158400000Y-47658571D02*
X158257142Y-47587142D01*
X158185714Y-47515714D01*
X158114285Y-47372857D01*
X158114285Y-46944285D01*
X158185714Y-46801428D01*
X158257142Y-46730000D01*
X158400000Y-46658571D01*
X158614285Y-46658571D01*
X158757142Y-46730000D01*
X158828571Y-46801428D01*
X158900000Y-46944285D01*
X158900000Y-47372857D01*
X158828571Y-47515714D01*
X158757142Y-47587142D01*
X158614285Y-47658571D01*
X158400000Y-47658571D01*
X160185714Y-47587142D02*
X160042857Y-47658571D01*
X159757142Y-47658571D01*
X159614285Y-47587142D01*
X159542857Y-47515714D01*
X159471428Y-47372857D01*
X159471428Y-46944285D01*
X159542857Y-46801428D01*
X159614285Y-46730000D01*
X159757142Y-46658571D01*
X160042857Y-46658571D01*
X160185714Y-46730000D01*
X160828571Y-47658571D02*
X160828571Y-46158571D01*
X160971428Y-47087142D02*
X161400000Y-47658571D01*
X161400000Y-46658571D02*
X160828571Y-47230000D01*
X148114285Y-50208571D02*
X148114285Y-48708571D01*
X148971428Y-50208571D02*
X148328571Y-49351428D01*
X148971428Y-48708571D02*
X148114285Y-49565714D01*
X150185714Y-50137142D02*
X150042857Y-50208571D01*
X149757142Y-50208571D01*
X149614285Y-50137142D01*
X149542857Y-49994285D01*
X149542857Y-49422857D01*
X149614285Y-49280000D01*
X149757142Y-49208571D01*
X150042857Y-49208571D01*
X150185714Y-49280000D01*
X150257142Y-49422857D01*
X150257142Y-49565714D01*
X149542857Y-49708571D01*
X150900000Y-49208571D02*
X150900000Y-50208571D01*
X150900000Y-49351428D02*
X150971428Y-49280000D01*
X151114285Y-49208571D01*
X151328571Y-49208571D01*
X151471428Y-49280000D01*
X151542857Y-49422857D01*
X151542857Y-50208571D01*
X153685714Y-49494285D02*
X153685714Y-50208571D01*
X153185714Y-48708571D02*
X153685714Y-49494285D01*
X154185714Y-48708571D01*
X155328571Y-50208571D02*
X155328571Y-49422857D01*
X155257142Y-49280000D01*
X155114285Y-49208571D01*
X154828571Y-49208571D01*
X154685714Y-49280000D01*
X155328571Y-50137142D02*
X155185714Y-50208571D01*
X154828571Y-50208571D01*
X154685714Y-50137142D01*
X154614285Y-49994285D01*
X154614285Y-49851428D01*
X154685714Y-49708571D01*
X154828571Y-49637142D01*
X155185714Y-49637142D01*
X155328571Y-49565714D01*
X156042857Y-49208571D02*
X156042857Y-50708571D01*
X156042857Y-49280000D02*
X156185714Y-49208571D01*
X156471428Y-49208571D01*
X156614285Y-49280000D01*
X156685714Y-49351428D01*
X156757142Y-49494285D01*
X156757142Y-49922857D01*
X156685714Y-50065714D01*
X156614285Y-50137142D01*
X156471428Y-50208571D01*
X156185714Y-50208571D01*
X156042857Y-50137142D01*
X149828571Y-51401428D02*
X149900000Y-51330000D01*
X150042857Y-51258571D01*
X150400000Y-51258571D01*
X150542857Y-51330000D01*
X150614285Y-51401428D01*
X150685714Y-51544285D01*
X150685714Y-51687142D01*
X150614285Y-51901428D01*
X149757142Y-52758571D01*
X150685714Y-52758571D01*
X151614285Y-51258571D02*
X151757142Y-51258571D01*
X151900000Y-51330000D01*
X151971428Y-51401428D01*
X152042857Y-51544285D01*
X152114285Y-51830000D01*
X152114285Y-52187142D01*
X152042857Y-52472857D01*
X151971428Y-52615714D01*
X151900000Y-52687142D01*
X151757142Y-52758571D01*
X151614285Y-52758571D01*
X151471428Y-52687142D01*
X151400000Y-52615714D01*
X151328571Y-52472857D01*
X151257142Y-52187142D01*
X151257142Y-51830000D01*
X151328571Y-51544285D01*
X151400000Y-51401428D01*
X151471428Y-51330000D01*
X151614285Y-51258571D01*
X153542857Y-52758571D02*
X152685714Y-52758571D01*
X153114285Y-52758571D02*
X153114285Y-51258571D01*
X152971428Y-51472857D01*
X152828571Y-51615714D01*
X152685714Y-51687142D01*
X154257142Y-52758571D02*
X154542857Y-52758571D01*
X154685714Y-52687142D01*
X154757142Y-52615714D01*
X154900000Y-52401428D01*
X154971428Y-52115714D01*
X154971428Y-51544285D01*
X154900000Y-51401428D01*
X154828571Y-51330000D01*
X154685714Y-51258571D01*
X154400000Y-51258571D01*
X154257142Y-51330000D01*
X154185714Y-51401428D01*
X154114285Y-51544285D01*
X154114285Y-51901428D01*
X154185714Y-52044285D01*
X154257142Y-52115714D01*
X154400000Y-52187142D01*
X154685714Y-52187142D01*
X154828571Y-52115714D01*
X154900000Y-52044285D01*
X154971428Y-51901428D01*
D12*
X138140000Y-74870000D02*
X136890000Y-74870000D01*
X138140000Y-92770000D02*
X138140000Y-74870000D01*
X133640000Y-92770000D02*
X138140000Y-92770000D01*
X133640000Y-74870000D02*
X133640000Y-92770000D01*
X134890000Y-74870000D02*
X133640000Y-74870000D01*
X136890000Y-74870000D02*
G75*
G02X134890000Y-74870000I-1000000J0D01*
G01*
X166270000Y-62360000D02*
X169010000Y-62360000D01*
X166270000Y-69800000D02*
X169010000Y-69800000D01*
X169010000Y-69800000D02*
X169010000Y-62360000D01*
X166270000Y-69800000D02*
X166270000Y-62360000D01*
X162560000Y-59460000D02*
X162560000Y-60230000D01*
X162560000Y-67540000D02*
X162560000Y-66770000D01*
X161190000Y-60230000D02*
X161190000Y-66770000D01*
X163930000Y-60230000D02*
X161190000Y-60230000D01*
X163930000Y-66770000D02*
X163930000Y-60230000D01*
X161190000Y-66770000D02*
X163930000Y-66770000D01*
X138140000Y-52010000D02*
X136890000Y-52010000D01*
X138140000Y-72450000D02*
X138140000Y-52010000D01*
X133640000Y-72450000D02*
X138140000Y-72450000D01*
X133640000Y-52010000D02*
X133640000Y-72450000D01*
X134890000Y-52010000D02*
X133640000Y-52010000D01*
X136890000Y-52010000D02*
G75*
G02X134890000Y-52010000I-1000000J0D01*
G01*
X133480000Y-97890000D02*
X133480000Y-95150000D01*
X140920000Y-97890000D02*
X140920000Y-95150000D01*
X140920000Y-95150000D02*
X133480000Y-95150000D01*
X140920000Y-97890000D02*
X133480000Y-97890000D01*
X156310000Y-123060000D02*
X153570000Y-123060000D01*
X156310000Y-115620000D02*
X153570000Y-115620000D01*
X153570000Y-115620000D02*
X153570000Y-123060000D01*
X156310000Y-115620000D02*
X156310000Y-123060000D01*
X133480000Y-49630000D02*
X133480000Y-46890000D01*
X140920000Y-49630000D02*
X140920000Y-46890000D01*
X140920000Y-46890000D02*
X133480000Y-46890000D01*
X140920000Y-49630000D02*
X133480000Y-49630000D01*
X110620000Y-97890000D02*
X110620000Y-95150000D01*
X118060000Y-97890000D02*
X118060000Y-95150000D01*
X118060000Y-95150000D02*
X110620000Y-95150000D01*
X118060000Y-97890000D02*
X110620000Y-97890000D01*
X164714000Y-117444759D02*
X164084000Y-117444759D01*
X164399000Y-117129759D02*
X164399000Y-117759759D01*
X162962000Y-123871000D02*
X162158000Y-123871000D01*
X163193000Y-123831000D02*
X161927000Y-123831000D01*
X163362000Y-123791000D02*
X161758000Y-123791000D01*
X163500000Y-123751000D02*
X161620000Y-123751000D01*
X163619000Y-123711000D02*
X161501000Y-123711000D01*
X163725000Y-123671000D02*
X161395000Y-123671000D01*
X163822000Y-123631000D02*
X161298000Y-123631000D01*
X163910000Y-123591000D02*
X161210000Y-123591000D01*
X163992000Y-123551000D02*
X161128000Y-123551000D01*
X164069000Y-123511000D02*
X161051000Y-123511000D01*
X164141000Y-123471000D02*
X160979000Y-123471000D01*
X164210000Y-123431000D02*
X160910000Y-123431000D01*
X164274000Y-123391000D02*
X160846000Y-123391000D01*
X164336000Y-123351000D02*
X160784000Y-123351000D01*
X164394000Y-123311000D02*
X160726000Y-123311000D01*
X164450000Y-123271000D02*
X160670000Y-123271000D01*
X164504000Y-123231000D02*
X160616000Y-123231000D01*
X164555000Y-123191000D02*
X160565000Y-123191000D01*
X164604000Y-123151000D02*
X160516000Y-123151000D01*
X164652000Y-123111000D02*
X160468000Y-123111000D01*
X164697000Y-123071000D02*
X160423000Y-123071000D01*
X164742000Y-123031000D02*
X160378000Y-123031000D01*
X164784000Y-122991000D02*
X160336000Y-122991000D01*
X164825000Y-122951000D02*
X160295000Y-122951000D01*
X161520000Y-122911000D02*
X160255000Y-122911000D01*
X164865000Y-122911000D02*
X163600000Y-122911000D01*
X161520000Y-122871000D02*
X160217000Y-122871000D01*
X164903000Y-122871000D02*
X163600000Y-122871000D01*
X161520000Y-122831000D02*
X160180000Y-122831000D01*
X164940000Y-122831000D02*
X163600000Y-122831000D01*
X161520000Y-122791000D02*
X160144000Y-122791000D01*
X164976000Y-122791000D02*
X163600000Y-122791000D01*
X161520000Y-122751000D02*
X160110000Y-122751000D01*
X165010000Y-122751000D02*
X163600000Y-122751000D01*
X161520000Y-122711000D02*
X160076000Y-122711000D01*
X165044000Y-122711000D02*
X163600000Y-122711000D01*
X161520000Y-122671000D02*
X160044000Y-122671000D01*
X165076000Y-122671000D02*
X163600000Y-122671000D01*
X161520000Y-122631000D02*
X160012000Y-122631000D01*
X165108000Y-122631000D02*
X163600000Y-122631000D01*
X161520000Y-122591000D02*
X159982000Y-122591000D01*
X165138000Y-122591000D02*
X163600000Y-122591000D01*
X161520000Y-122551000D02*
X159953000Y-122551000D01*
X165167000Y-122551000D02*
X163600000Y-122551000D01*
X161520000Y-122511000D02*
X159924000Y-122511000D01*
X165196000Y-122511000D02*
X163600000Y-122511000D01*
X161520000Y-122471000D02*
X159896000Y-122471000D01*
X165224000Y-122471000D02*
X163600000Y-122471000D01*
X161520000Y-122431000D02*
X159870000Y-122431000D01*
X165250000Y-122431000D02*
X163600000Y-122431000D01*
X161520000Y-122391000D02*
X159844000Y-122391000D01*
X165276000Y-122391000D02*
X163600000Y-122391000D01*
X161520000Y-122351000D02*
X159818000Y-122351000D01*
X165302000Y-122351000D02*
X163600000Y-122351000D01*
X161520000Y-122311000D02*
X159794000Y-122311000D01*
X165326000Y-122311000D02*
X163600000Y-122311000D01*
X161520000Y-122271000D02*
X159770000Y-122271000D01*
X165350000Y-122271000D02*
X163600000Y-122271000D01*
X161520000Y-122231000D02*
X159748000Y-122231000D01*
X165372000Y-122231000D02*
X163600000Y-122231000D01*
X161520000Y-122191000D02*
X159726000Y-122191000D01*
X165394000Y-122191000D02*
X163600000Y-122191000D01*
X161520000Y-122151000D02*
X159704000Y-122151000D01*
X165416000Y-122151000D02*
X163600000Y-122151000D01*
X161520000Y-122111000D02*
X159684000Y-122111000D01*
X165436000Y-122111000D02*
X163600000Y-122111000D01*
X161520000Y-122071000D02*
X159664000Y-122071000D01*
X165456000Y-122071000D02*
X163600000Y-122071000D01*
X161520000Y-122031000D02*
X159644000Y-122031000D01*
X165476000Y-122031000D02*
X163600000Y-122031000D01*
X161520000Y-121991000D02*
X159626000Y-121991000D01*
X165494000Y-121991000D02*
X163600000Y-121991000D01*
X161520000Y-121951000D02*
X159608000Y-121951000D01*
X165512000Y-121951000D02*
X163600000Y-121951000D01*
X161520000Y-121911000D02*
X159590000Y-121911000D01*
X165530000Y-121911000D02*
X163600000Y-121911000D01*
X161520000Y-121871000D02*
X159574000Y-121871000D01*
X165546000Y-121871000D02*
X163600000Y-121871000D01*
X161520000Y-121831000D02*
X159558000Y-121831000D01*
X165562000Y-121831000D02*
X163600000Y-121831000D01*
X161520000Y-121791000D02*
X159542000Y-121791000D01*
X165578000Y-121791000D02*
X163600000Y-121791000D01*
X161520000Y-121751000D02*
X159527000Y-121751000D01*
X165593000Y-121751000D02*
X163600000Y-121751000D01*
X161520000Y-121711000D02*
X159513000Y-121711000D01*
X165607000Y-121711000D02*
X163600000Y-121711000D01*
X161520000Y-121671000D02*
X159499000Y-121671000D01*
X165621000Y-121671000D02*
X163600000Y-121671000D01*
X161520000Y-121631000D02*
X159486000Y-121631000D01*
X165634000Y-121631000D02*
X163600000Y-121631000D01*
X161520000Y-121591000D02*
X159474000Y-121591000D01*
X165646000Y-121591000D02*
X163600000Y-121591000D01*
X161520000Y-121551000D02*
X159462000Y-121551000D01*
X165658000Y-121551000D02*
X163600000Y-121551000D01*
X161520000Y-121511000D02*
X159450000Y-121511000D01*
X165670000Y-121511000D02*
X163600000Y-121511000D01*
X161520000Y-121471000D02*
X159439000Y-121471000D01*
X165681000Y-121471000D02*
X163600000Y-121471000D01*
X161520000Y-121431000D02*
X159429000Y-121431000D01*
X165691000Y-121431000D02*
X163600000Y-121431000D01*
X161520000Y-121391000D02*
X159419000Y-121391000D01*
X165701000Y-121391000D02*
X163600000Y-121391000D01*
X161520000Y-121351000D02*
X159410000Y-121351000D01*
X165710000Y-121351000D02*
X163600000Y-121351000D01*
X161520000Y-121310000D02*
X159401000Y-121310000D01*
X165719000Y-121310000D02*
X163600000Y-121310000D01*
X161520000Y-121270000D02*
X159393000Y-121270000D01*
X165727000Y-121270000D02*
X163600000Y-121270000D01*
X161520000Y-121230000D02*
X159385000Y-121230000D01*
X165735000Y-121230000D02*
X163600000Y-121230000D01*
X161520000Y-121190000D02*
X159378000Y-121190000D01*
X165742000Y-121190000D02*
X163600000Y-121190000D01*
X161520000Y-121150000D02*
X159371000Y-121150000D01*
X165749000Y-121150000D02*
X163600000Y-121150000D01*
X161520000Y-121110000D02*
X159365000Y-121110000D01*
X165755000Y-121110000D02*
X163600000Y-121110000D01*
X161520000Y-121070000D02*
X159359000Y-121070000D01*
X165761000Y-121070000D02*
X163600000Y-121070000D01*
X161520000Y-121030000D02*
X159354000Y-121030000D01*
X165766000Y-121030000D02*
X163600000Y-121030000D01*
X161520000Y-120990000D02*
X159349000Y-120990000D01*
X165771000Y-120990000D02*
X163600000Y-120990000D01*
X161520000Y-120950000D02*
X159345000Y-120950000D01*
X165775000Y-120950000D02*
X163600000Y-120950000D01*
X161520000Y-120910000D02*
X159342000Y-120910000D01*
X165778000Y-120910000D02*
X163600000Y-120910000D01*
X161520000Y-120870000D02*
X159338000Y-120870000D01*
X165782000Y-120870000D02*
X163600000Y-120870000D01*
X165784000Y-120830000D02*
X159336000Y-120830000D01*
X165787000Y-120790000D02*
X159333000Y-120790000D01*
X165788000Y-120750000D02*
X159332000Y-120750000D01*
X165790000Y-120710000D02*
X159330000Y-120710000D01*
X165790000Y-120670000D02*
X159330000Y-120670000D01*
X165790000Y-120630000D02*
X159330000Y-120630000D01*
X165830000Y-120630000D02*
G75*
G03X165830000Y-120630000I-3270000J0D01*
G01*
X128400000Y-87630000D02*
X125600000Y-87630000D01*
X128400000Y-108120000D02*
X128400000Y-84920000D01*
X125600000Y-108120000D02*
X128400000Y-108120000D01*
X125600000Y-84920000D02*
X125600000Y-108120000D01*
X128400000Y-84920000D02*
X125600000Y-84920000D01*
X105540000Y-87630000D02*
X102740000Y-87630000D01*
X105540000Y-108120000D02*
X105540000Y-84920000D01*
X102740000Y-108120000D02*
X105540000Y-108120000D01*
X102740000Y-84920000D02*
X102740000Y-108120000D01*
X105540000Y-84920000D02*
X102740000Y-84920000D01*
X148396000Y-135830000D02*
X148396000Y-137160000D01*
X147066000Y-135830000D02*
X148396000Y-135830000D01*
X145796000Y-135830000D02*
X145796000Y-138490000D01*
X145796000Y-138490000D02*
X145736000Y-138490000D01*
X145796000Y-135830000D02*
X145736000Y-135830000D01*
X145736000Y-135830000D02*
X145736000Y-138490000D01*
X159064000Y-135830000D02*
X159064000Y-137160000D01*
X157734000Y-135830000D02*
X159064000Y-135830000D01*
X156464000Y-135830000D02*
X156464000Y-138490000D01*
X156464000Y-138490000D02*
X156404000Y-138490000D01*
X156464000Y-135830000D02*
X156404000Y-135830000D01*
X156404000Y-135830000D02*
X156404000Y-138490000D01*
X145420000Y-62350000D02*
X145420000Y-62800000D01*
X145825000Y-61200000D02*
X145420000Y-62350000D01*
X147320000Y-62350000D02*
X147320000Y-62800000D01*
X146915000Y-61200000D02*
X147320000Y-62350000D01*
X144670000Y-61200000D02*
X148070000Y-61200000D01*
X144670000Y-52800000D02*
X144670000Y-61200000D01*
X148070000Y-52800000D02*
X144670000Y-52800000D01*
X148070000Y-61200000D02*
X148070000Y-52800000D01*
D13*
G36*
X93950946Y-126593600D02*
G01*
X93837007Y-126604465D01*
X93729384Y-126636082D01*
X93630385Y-126686985D01*
X93542316Y-126755707D01*
X93467484Y-126840781D01*
X93409616Y-126937768D01*
X93369995Y-127044036D01*
X93351427Y-127151050D01*
X93352566Y-127256700D01*
X93372070Y-127358875D01*
X93408594Y-127455466D01*
X93460795Y-127544362D01*
X93527327Y-127623454D01*
X93606848Y-127690631D01*
X93698013Y-127743783D01*
X93799477Y-127780801D01*
X93909898Y-127799573D01*
X93959794Y-127801511D01*
X94047733Y-127801511D01*
X94047733Y-127853440D01*
X94044889Y-127889747D01*
X94033089Y-127916645D01*
X94009351Y-127943751D01*
X93970969Y-127982133D01*
X91779398Y-127982133D01*
X91517261Y-127982124D01*
X91276759Y-127982092D01*
X91056952Y-127982028D01*
X90856899Y-127981924D01*
X90675656Y-127981773D01*
X90512284Y-127981566D01*
X90365840Y-127981294D01*
X90235383Y-127980950D01*
X90119971Y-127980526D01*
X90018662Y-127980013D01*
X89930516Y-127979403D01*
X89854590Y-127978688D01*
X89789943Y-127977860D01*
X89735633Y-127976911D01*
X89690720Y-127975833D01*
X89654260Y-127974617D01*
X89625313Y-127973255D01*
X89602937Y-127971739D01*
X89586191Y-127970062D01*
X89574132Y-127968214D01*
X89565820Y-127966187D01*
X89560313Y-127963975D01*
X89558463Y-127962892D01*
X89551451Y-127958729D01*
X89545004Y-127955195D01*
X89539100Y-127951365D01*
X89533714Y-127946318D01*
X89528822Y-127939129D01*
X89524402Y-127928877D01*
X89520428Y-127914636D01*
X89516879Y-127895486D01*
X89513730Y-127870501D01*
X89510958Y-127838760D01*
X89508539Y-127799338D01*
X89506449Y-127751314D01*
X89504665Y-127693763D01*
X89503163Y-127625763D01*
X89501920Y-127546390D01*
X89500911Y-127454721D01*
X89500115Y-127349834D01*
X89499506Y-127230804D01*
X89499061Y-127096710D01*
X89498757Y-126946627D01*
X89498570Y-126779633D01*
X89498476Y-126594804D01*
X89498452Y-126391217D01*
X89498475Y-126167950D01*
X89498520Y-125924078D01*
X89498563Y-125658679D01*
X89498568Y-125620296D01*
X89498611Y-125353318D01*
X89498682Y-125107998D01*
X89498787Y-124883417D01*
X89498934Y-124678655D01*
X89499131Y-124492794D01*
X89499384Y-124324912D01*
X89499700Y-124174092D01*
X89500087Y-124039413D01*
X89500553Y-123919956D01*
X89501103Y-123814801D01*
X89501747Y-123723029D01*
X89502489Y-123643721D01*
X89503339Y-123575957D01*
X89504303Y-123518818D01*
X89505389Y-123471383D01*
X89506603Y-123432734D01*
X89507953Y-123401951D01*
X89509445Y-123378115D01*
X89511089Y-123360306D01*
X89512889Y-123347605D01*
X89514855Y-123339092D01*
X89516523Y-123334734D01*
X89520094Y-123326272D01*
X89522730Y-123318503D01*
X89525366Y-123311398D01*
X89528938Y-123304927D01*
X89534379Y-123299061D01*
X89542625Y-123293771D01*
X89554610Y-123289026D01*
X89571269Y-123284798D01*
X89593537Y-123281057D01*
X89622348Y-123277773D01*
X89658637Y-123274917D01*
X89703339Y-123272460D01*
X89757389Y-123270371D01*
X89821721Y-123268622D01*
X89897270Y-123267183D01*
X89984970Y-123266024D01*
X90085757Y-123265117D01*
X90200566Y-123264431D01*
X90330330Y-123263937D01*
X90475985Y-123263605D01*
X90638465Y-123263407D01*
X90818705Y-123263313D01*
X91017640Y-123263292D01*
X91236204Y-123263315D01*
X91475332Y-123263354D01*
X91735960Y-123263378D01*
X91778111Y-123263378D01*
X92041008Y-123263364D01*
X92282268Y-123263339D01*
X92502835Y-123263329D01*
X92703648Y-123263358D01*
X92885651Y-123263452D01*
X93049784Y-123263638D01*
X93196989Y-123263941D01*
X93328208Y-123264386D01*
X93438133Y-123264966D01*
X93438133Y-123567803D01*
X93380289Y-123607593D01*
X93364521Y-123618764D01*
X93350559Y-123628834D01*
X93337216Y-123637862D01*
X93323307Y-123645903D01*
X93307644Y-123653014D01*
X93289042Y-123659253D01*
X93266314Y-123664675D01*
X93238273Y-123669338D01*
X93203733Y-123673299D01*
X93161508Y-123676615D01*
X93110411Y-123679341D01*
X93049256Y-123681536D01*
X92976856Y-123683255D01*
X92892025Y-123684556D01*
X92793578Y-123685495D01*
X92680326Y-123686130D01*
X92551084Y-123686516D01*
X92404666Y-123686712D01*
X92239884Y-123686773D01*
X92055553Y-123686757D01*
X91850487Y-123686720D01*
X91727867Y-123686711D01*
X91510918Y-123686735D01*
X91315358Y-123686769D01*
X91140001Y-123686757D01*
X90983659Y-123686642D01*
X90845143Y-123686370D01*
X90723266Y-123685882D01*
X90616840Y-123685124D01*
X90524678Y-123684038D01*
X90445591Y-123682569D01*
X90378392Y-123680660D01*
X90321893Y-123678256D01*
X90274907Y-123675299D01*
X90236245Y-123671734D01*
X90204720Y-123667505D01*
X90179145Y-123662554D01*
X90158330Y-123656827D01*
X90141089Y-123650267D01*
X90126235Y-123642817D01*
X90112578Y-123634421D01*
X90098931Y-123625024D01*
X90084107Y-123614568D01*
X90075217Y-123608477D01*
X90017600Y-123569704D01*
X90017600Y-124101268D01*
X90017635Y-124224517D01*
X90017785Y-124327013D01*
X90018122Y-124410580D01*
X90018714Y-124477044D01*
X90019633Y-124528229D01*
X90020949Y-124565959D01*
X90022731Y-124592060D01*
X90025049Y-124608356D01*
X90027974Y-124616672D01*
X90031576Y-124618832D01*
X90035925Y-124616661D01*
X90037355Y-124615465D01*
X90074427Y-124590315D01*
X90127228Y-124564417D01*
X90189230Y-124540808D01*
X90215643Y-124532539D01*
X90233584Y-124527922D01*
X90254645Y-124524021D01*
X90280911Y-124520752D01*
X90314468Y-124518034D01*
X90357401Y-124515785D01*
X90411796Y-124513923D01*
X90479738Y-124512364D01*
X90563312Y-124511028D01*
X90664605Y-124509831D01*
X90785700Y-124508692D01*
X90830400Y-124508315D01*
X90955551Y-124507298D01*
X91059918Y-124506540D01*
X91145293Y-124506097D01*
X91213467Y-124506030D01*
X91266235Y-124506395D01*
X91305386Y-124507252D01*
X91332715Y-124508659D01*
X91350014Y-124510675D01*
X91359074Y-124513357D01*
X91361688Y-124516764D01*
X91359649Y-124520956D01*
X91355333Y-124525429D01*
X91342398Y-124535784D01*
X91313324Y-124557842D01*
X91270241Y-124590043D01*
X91215282Y-124630826D01*
X91150577Y-124678630D01*
X91078258Y-124731895D01*
X91000456Y-124789060D01*
X90919302Y-124848563D01*
X90836928Y-124908845D01*
X90755464Y-124968345D01*
X90677043Y-125025502D01*
X90603796Y-125078755D01*
X90537853Y-125126543D01*
X90481346Y-125167307D01*
X90436407Y-125199484D01*
X90405166Y-125221515D01*
X90398534Y-125226083D01*
X90361631Y-125249004D01*
X90313641Y-125275812D01*
X90264103Y-125301211D01*
X90257423Y-125304432D01*
X90209228Y-125326110D01*
X90171666Y-125338696D01*
X90135840Y-125344426D01*
X90093800Y-125345544D01*
X90017600Y-125344910D01*
X90017600Y-126499349D01*
X90111331Y-126408185D01*
X90161225Y-126361388D01*
X90217705Y-126311101D01*
X90271974Y-126265056D01*
X90297327Y-126244631D01*
X90336872Y-126214193D01*
X90390084Y-126174138D01*
X90455333Y-126125639D01*
X90530989Y-126069865D01*
X90615423Y-126007989D01*
X90707006Y-125941181D01*
X90804108Y-125870613D01*
X90905099Y-125797455D01*
X91008350Y-125722879D01*
X91112232Y-125648056D01*
X91215115Y-125574157D01*
X91315369Y-125502354D01*
X91411364Y-125433816D01*
X91501473Y-125369716D01*
X91584064Y-125311225D01*
X91657508Y-125259514D01*
X91720176Y-125215753D01*
X91770439Y-125181115D01*
X91806666Y-125156770D01*
X91827229Y-125143889D01*
X91831332Y-125142131D01*
X91842658Y-125150090D01*
X91869838Y-125170885D01*
X91911171Y-125203153D01*
X91964956Y-125245530D01*
X92029494Y-125296653D01*
X92103082Y-125355159D01*
X92184022Y-125419686D01*
X92270612Y-125488869D01*
X92361152Y-125561347D01*
X92453940Y-125635754D01*
X92528298Y-125695483D01*
X92528298Y-126706489D01*
X92515341Y-126712398D01*
X92493092Y-126726728D01*
X92491609Y-126727775D01*
X92461456Y-126746562D01*
X92424625Y-126766209D01*
X92416489Y-126770108D01*
X92408060Y-126773644D01*
X92397941Y-126776770D01*
X92384740Y-126779514D01*
X92367062Y-126781908D01*
X92343516Y-126783981D01*
X92312707Y-126785765D01*
X92273243Y-126787288D01*
X92223731Y-126788581D01*
X92162777Y-126789674D01*
X92088989Y-126790597D01*
X92000972Y-126791381D01*
X91897335Y-126792055D01*
X91776684Y-126792650D01*
X91637626Y-126793195D01*
X91478768Y-126793721D01*
X91299911Y-126794255D01*
X91114793Y-126794794D01*
X90950855Y-126795228D01*
X90806697Y-126795491D01*
X90680921Y-126795516D01*
X90572129Y-126795235D01*
X90478923Y-126794581D01*
X90399903Y-126793486D01*
X90333672Y-126791882D01*
X90278830Y-126789703D01*
X90233979Y-126786881D01*
X90197722Y-126783349D01*
X90168659Y-126779039D01*
X90145391Y-126773883D01*
X90126521Y-126767815D01*
X90110649Y-126760767D01*
X90096378Y-126752671D01*
X90082309Y-126743460D01*
X90069842Y-126734960D01*
X90043548Y-126717824D01*
X90025963Y-126707678D01*
X90022743Y-126706489D01*
X90021666Y-126717396D01*
X90020665Y-126748589D01*
X90019765Y-126797777D01*
X90018990Y-126862667D01*
X90018363Y-126940970D01*
X90017909Y-127030393D01*
X90017651Y-127128644D01*
X90017600Y-127197555D01*
X90017820Y-127302548D01*
X90018452Y-127399390D01*
X90019451Y-127485893D01*
X90020773Y-127559868D01*
X90022374Y-127619126D01*
X90024209Y-127661480D01*
X90026235Y-127684740D01*
X90027507Y-127688622D01*
X90042409Y-127680924D01*
X90050440Y-127672926D01*
X90067566Y-127659754D01*
X90097817Y-127642515D01*
X90122378Y-127630593D01*
X90181289Y-127603955D01*
X91358155Y-127600880D01*
X92535022Y-127597805D01*
X92535022Y-127152147D01*
X92534858Y-127054330D01*
X92534389Y-126963936D01*
X92533653Y-126883370D01*
X92532684Y-126815038D01*
X92531520Y-126761344D01*
X92530197Y-126724695D01*
X92528751Y-126707496D01*
X92528298Y-126706489D01*
X92528298Y-125695483D01*
X92547278Y-125710730D01*
X92639463Y-125784910D01*
X92728796Y-125856931D01*
X92813576Y-125925431D01*
X92892102Y-125989045D01*
X92962674Y-126046412D01*
X93023591Y-126096167D01*
X93073153Y-126136948D01*
X93093822Y-126154112D01*
X93194484Y-126240404D01*
X93277741Y-126317003D01*
X93345562Y-126385817D01*
X93399911Y-126448752D01*
X93407278Y-126458133D01*
X93437883Y-126497644D01*
X93438133Y-125365884D01*
X93390156Y-125371173D01*
X93332812Y-125367870D01*
X93264537Y-125346339D01*
X93184788Y-125306365D01*
X93112505Y-125261057D01*
X93089860Y-125244839D01*
X93052304Y-125216786D01*
X93001979Y-125178570D01*
X92941027Y-125131863D01*
X92871589Y-125078339D01*
X92795806Y-125019669D01*
X92715820Y-124957525D01*
X92633772Y-124893579D01*
X92551804Y-124829505D01*
X92472057Y-124766973D01*
X92396673Y-124707657D01*
X92327793Y-124653229D01*
X92267558Y-124605361D01*
X92218111Y-124565725D01*
X92181592Y-124535994D01*
X92160142Y-124517839D01*
X92156844Y-124514780D01*
X92164851Y-124511921D01*
X92195145Y-124509707D01*
X92247444Y-124508143D01*
X92321469Y-124507233D01*
X92416937Y-124506980D01*
X92533566Y-124507387D01*
X92653555Y-124508296D01*
X92785667Y-124509618D01*
X92897406Y-124511143D01*
X92990975Y-124513119D01*
X93068581Y-124515794D01*
X93132426Y-124519418D01*
X93184717Y-124524239D01*
X93227656Y-124530506D01*
X93263449Y-124538468D01*
X93294300Y-124548373D01*
X93322414Y-124560469D01*
X93349995Y-124575007D01*
X93375034Y-124589689D01*
X93438133Y-124627686D01*
X93438133Y-123567803D01*
X93438133Y-123264966D01*
X93444383Y-123264999D01*
X93546456Y-123265805D01*
X93635367Y-123266830D01*
X93712059Y-123268100D01*
X93777473Y-123269640D01*
X93832551Y-123271476D01*
X93878235Y-123273633D01*
X93915466Y-123276137D01*
X93945187Y-123279013D01*
X93968338Y-123282287D01*
X93985861Y-123285985D01*
X93998699Y-123290131D01*
X94007792Y-123294753D01*
X94014082Y-123299874D01*
X94018512Y-123305522D01*
X94022022Y-123311721D01*
X94025555Y-123318496D01*
X94029124Y-123324492D01*
X94031700Y-123329725D01*
X94034028Y-123337901D01*
X94036122Y-123350114D01*
X94037993Y-123367459D01*
X94039653Y-123391031D01*
X94041116Y-123421923D01*
X94042392Y-123461232D01*
X94043496Y-123510050D01*
X94044439Y-123569473D01*
X94045233Y-123640596D01*
X94045891Y-123724512D01*
X94046425Y-123822317D01*
X94046847Y-123935106D01*
X94047171Y-124063971D01*
X94047408Y-124210009D01*
X94047570Y-124374314D01*
X94047670Y-124557980D01*
X94047720Y-124762103D01*
X94047733Y-124973247D01*
X94047733Y-126593600D01*
X93950946Y-126593600D01*
X93950946Y-126593600D01*
G37*
X93950946Y-126593600D02*
X93837007Y-126604465D01*
X93729384Y-126636082D01*
X93630385Y-126686985D01*
X93542316Y-126755707D01*
X93467484Y-126840781D01*
X93409616Y-126937768D01*
X93369995Y-127044036D01*
X93351427Y-127151050D01*
X93352566Y-127256700D01*
X93372070Y-127358875D01*
X93408594Y-127455466D01*
X93460795Y-127544362D01*
X93527327Y-127623454D01*
X93606848Y-127690631D01*
X93698013Y-127743783D01*
X93799477Y-127780801D01*
X93909898Y-127799573D01*
X93959794Y-127801511D01*
X94047733Y-127801511D01*
X94047733Y-127853440D01*
X94044889Y-127889747D01*
X94033089Y-127916645D01*
X94009351Y-127943751D01*
X93970969Y-127982133D01*
X91779398Y-127982133D01*
X91517261Y-127982124D01*
X91276759Y-127982092D01*
X91056952Y-127982028D01*
X90856899Y-127981924D01*
X90675656Y-127981773D01*
X90512284Y-127981566D01*
X90365840Y-127981294D01*
X90235383Y-127980950D01*
X90119971Y-127980526D01*
X90018662Y-127980013D01*
X89930516Y-127979403D01*
X89854590Y-127978688D01*
X89789943Y-127977860D01*
X89735633Y-127976911D01*
X89690720Y-127975833D01*
X89654260Y-127974617D01*
X89625313Y-127973255D01*
X89602937Y-127971739D01*
X89586191Y-127970062D01*
X89574132Y-127968214D01*
X89565820Y-127966187D01*
X89560313Y-127963975D01*
X89558463Y-127962892D01*
X89551451Y-127958729D01*
X89545004Y-127955195D01*
X89539100Y-127951365D01*
X89533714Y-127946318D01*
X89528822Y-127939129D01*
X89524402Y-127928877D01*
X89520428Y-127914636D01*
X89516879Y-127895486D01*
X89513730Y-127870501D01*
X89510958Y-127838760D01*
X89508539Y-127799338D01*
X89506449Y-127751314D01*
X89504665Y-127693763D01*
X89503163Y-127625763D01*
X89501920Y-127546390D01*
X89500911Y-127454721D01*
X89500115Y-127349834D01*
X89499506Y-127230804D01*
X89499061Y-127096710D01*
X89498757Y-126946627D01*
X89498570Y-126779633D01*
X89498476Y-126594804D01*
X89498452Y-126391217D01*
X89498475Y-126167950D01*
X89498520Y-125924078D01*
X89498563Y-125658679D01*
X89498568Y-125620296D01*
X89498611Y-125353318D01*
X89498682Y-125107998D01*
X89498787Y-124883417D01*
X89498934Y-124678655D01*
X89499131Y-124492794D01*
X89499384Y-124324912D01*
X89499700Y-124174092D01*
X89500087Y-124039413D01*
X89500553Y-123919956D01*
X89501103Y-123814801D01*
X89501747Y-123723029D01*
X89502489Y-123643721D01*
X89503339Y-123575957D01*
X89504303Y-123518818D01*
X89505389Y-123471383D01*
X89506603Y-123432734D01*
X89507953Y-123401951D01*
X89509445Y-123378115D01*
X89511089Y-123360306D01*
X89512889Y-123347605D01*
X89514855Y-123339092D01*
X89516523Y-123334734D01*
X89520094Y-123326272D01*
X89522730Y-123318503D01*
X89525366Y-123311398D01*
X89528938Y-123304927D01*
X89534379Y-123299061D01*
X89542625Y-123293771D01*
X89554610Y-123289026D01*
X89571269Y-123284798D01*
X89593537Y-123281057D01*
X89622348Y-123277773D01*
X89658637Y-123274917D01*
X89703339Y-123272460D01*
X89757389Y-123270371D01*
X89821721Y-123268622D01*
X89897270Y-123267183D01*
X89984970Y-123266024D01*
X90085757Y-123265117D01*
X90200566Y-123264431D01*
X90330330Y-123263937D01*
X90475985Y-123263605D01*
X90638465Y-123263407D01*
X90818705Y-123263313D01*
X91017640Y-123263292D01*
X91236204Y-123263315D01*
X91475332Y-123263354D01*
X91735960Y-123263378D01*
X91778111Y-123263378D01*
X92041008Y-123263364D01*
X92282268Y-123263339D01*
X92502835Y-123263329D01*
X92703648Y-123263358D01*
X92885651Y-123263452D01*
X93049784Y-123263638D01*
X93196989Y-123263941D01*
X93328208Y-123264386D01*
X93438133Y-123264966D01*
X93438133Y-123567803D01*
X93380289Y-123607593D01*
X93364521Y-123618764D01*
X93350559Y-123628834D01*
X93337216Y-123637862D01*
X93323307Y-123645903D01*
X93307644Y-123653014D01*
X93289042Y-123659253D01*
X93266314Y-123664675D01*
X93238273Y-123669338D01*
X93203733Y-123673299D01*
X93161508Y-123676615D01*
X93110411Y-123679341D01*
X93049256Y-123681536D01*
X92976856Y-123683255D01*
X92892025Y-123684556D01*
X92793578Y-123685495D01*
X92680326Y-123686130D01*
X92551084Y-123686516D01*
X92404666Y-123686712D01*
X92239884Y-123686773D01*
X92055553Y-123686757D01*
X91850487Y-123686720D01*
X91727867Y-123686711D01*
X91510918Y-123686735D01*
X91315358Y-123686769D01*
X91140001Y-123686757D01*
X90983659Y-123686642D01*
X90845143Y-123686370D01*
X90723266Y-123685882D01*
X90616840Y-123685124D01*
X90524678Y-123684038D01*
X90445591Y-123682569D01*
X90378392Y-123680660D01*
X90321893Y-123678256D01*
X90274907Y-123675299D01*
X90236245Y-123671734D01*
X90204720Y-123667505D01*
X90179145Y-123662554D01*
X90158330Y-123656827D01*
X90141089Y-123650267D01*
X90126235Y-123642817D01*
X90112578Y-123634421D01*
X90098931Y-123625024D01*
X90084107Y-123614568D01*
X90075217Y-123608477D01*
X90017600Y-123569704D01*
X90017600Y-124101268D01*
X90017635Y-124224517D01*
X90017785Y-124327013D01*
X90018122Y-124410580D01*
X90018714Y-124477044D01*
X90019633Y-124528229D01*
X90020949Y-124565959D01*
X90022731Y-124592060D01*
X90025049Y-124608356D01*
X90027974Y-124616672D01*
X90031576Y-124618832D01*
X90035925Y-124616661D01*
X90037355Y-124615465D01*
X90074427Y-124590315D01*
X90127228Y-124564417D01*
X90189230Y-124540808D01*
X90215643Y-124532539D01*
X90233584Y-124527922D01*
X90254645Y-124524021D01*
X90280911Y-124520752D01*
X90314468Y-124518034D01*
X90357401Y-124515785D01*
X90411796Y-124513923D01*
X90479738Y-124512364D01*
X90563312Y-124511028D01*
X90664605Y-124509831D01*
X90785700Y-124508692D01*
X90830400Y-124508315D01*
X90955551Y-124507298D01*
X91059918Y-124506540D01*
X91145293Y-124506097D01*
X91213467Y-124506030D01*
X91266235Y-124506395D01*
X91305386Y-124507252D01*
X91332715Y-124508659D01*
X91350014Y-124510675D01*
X91359074Y-124513357D01*
X91361688Y-124516764D01*
X91359649Y-124520956D01*
X91355333Y-124525429D01*
X91342398Y-124535784D01*
X91313324Y-124557842D01*
X91270241Y-124590043D01*
X91215282Y-124630826D01*
X91150577Y-124678630D01*
X91078258Y-124731895D01*
X91000456Y-124789060D01*
X90919302Y-124848563D01*
X90836928Y-124908845D01*
X90755464Y-124968345D01*
X90677043Y-125025502D01*
X90603796Y-125078755D01*
X90537853Y-125126543D01*
X90481346Y-125167307D01*
X90436407Y-125199484D01*
X90405166Y-125221515D01*
X90398534Y-125226083D01*
X90361631Y-125249004D01*
X90313641Y-125275812D01*
X90264103Y-125301211D01*
X90257423Y-125304432D01*
X90209228Y-125326110D01*
X90171666Y-125338696D01*
X90135840Y-125344426D01*
X90093800Y-125345544D01*
X90017600Y-125344910D01*
X90017600Y-126499349D01*
X90111331Y-126408185D01*
X90161225Y-126361388D01*
X90217705Y-126311101D01*
X90271974Y-126265056D01*
X90297327Y-126244631D01*
X90336872Y-126214193D01*
X90390084Y-126174138D01*
X90455333Y-126125639D01*
X90530989Y-126069865D01*
X90615423Y-126007989D01*
X90707006Y-125941181D01*
X90804108Y-125870613D01*
X90905099Y-125797455D01*
X91008350Y-125722879D01*
X91112232Y-125648056D01*
X91215115Y-125574157D01*
X91315369Y-125502354D01*
X91411364Y-125433816D01*
X91501473Y-125369716D01*
X91584064Y-125311225D01*
X91657508Y-125259514D01*
X91720176Y-125215753D01*
X91770439Y-125181115D01*
X91806666Y-125156770D01*
X91827229Y-125143889D01*
X91831332Y-125142131D01*
X91842658Y-125150090D01*
X91869838Y-125170885D01*
X91911171Y-125203153D01*
X91964956Y-125245530D01*
X92029494Y-125296653D01*
X92103082Y-125355159D01*
X92184022Y-125419686D01*
X92270612Y-125488869D01*
X92361152Y-125561347D01*
X92453940Y-125635754D01*
X92528298Y-125695483D01*
X92528298Y-126706489D01*
X92515341Y-126712398D01*
X92493092Y-126726728D01*
X92491609Y-126727775D01*
X92461456Y-126746562D01*
X92424625Y-126766209D01*
X92416489Y-126770108D01*
X92408060Y-126773644D01*
X92397941Y-126776770D01*
X92384740Y-126779514D01*
X92367062Y-126781908D01*
X92343516Y-126783981D01*
X92312707Y-126785765D01*
X92273243Y-126787288D01*
X92223731Y-126788581D01*
X92162777Y-126789674D01*
X92088989Y-126790597D01*
X92000972Y-126791381D01*
X91897335Y-126792055D01*
X91776684Y-126792650D01*
X91637626Y-126793195D01*
X91478768Y-126793721D01*
X91299911Y-126794255D01*
X91114793Y-126794794D01*
X90950855Y-126795228D01*
X90806697Y-126795491D01*
X90680921Y-126795516D01*
X90572129Y-126795235D01*
X90478923Y-126794581D01*
X90399903Y-126793486D01*
X90333672Y-126791882D01*
X90278830Y-126789703D01*
X90233979Y-126786881D01*
X90197722Y-126783349D01*
X90168659Y-126779039D01*
X90145391Y-126773883D01*
X90126521Y-126767815D01*
X90110649Y-126760767D01*
X90096378Y-126752671D01*
X90082309Y-126743460D01*
X90069842Y-126734960D01*
X90043548Y-126717824D01*
X90025963Y-126707678D01*
X90022743Y-126706489D01*
X90021666Y-126717396D01*
X90020665Y-126748589D01*
X90019765Y-126797777D01*
X90018990Y-126862667D01*
X90018363Y-126940970D01*
X90017909Y-127030393D01*
X90017651Y-127128644D01*
X90017600Y-127197555D01*
X90017820Y-127302548D01*
X90018452Y-127399390D01*
X90019451Y-127485893D01*
X90020773Y-127559868D01*
X90022374Y-127619126D01*
X90024209Y-127661480D01*
X90026235Y-127684740D01*
X90027507Y-127688622D01*
X90042409Y-127680924D01*
X90050440Y-127672926D01*
X90067566Y-127659754D01*
X90097817Y-127642515D01*
X90122378Y-127630593D01*
X90181289Y-127603955D01*
X91358155Y-127600880D01*
X92535022Y-127597805D01*
X92535022Y-127152147D01*
X92534858Y-127054330D01*
X92534389Y-126963936D01*
X92533653Y-126883370D01*
X92532684Y-126815038D01*
X92531520Y-126761344D01*
X92530197Y-126724695D01*
X92528751Y-126707496D01*
X92528298Y-126706489D01*
X92528298Y-125695483D01*
X92547278Y-125710730D01*
X92639463Y-125784910D01*
X92728796Y-125856931D01*
X92813576Y-125925431D01*
X92892102Y-125989045D01*
X92962674Y-126046412D01*
X93023591Y-126096167D01*
X93073153Y-126136948D01*
X93093822Y-126154112D01*
X93194484Y-126240404D01*
X93277741Y-126317003D01*
X93345562Y-126385817D01*
X93399911Y-126448752D01*
X93407278Y-126458133D01*
X93437883Y-126497644D01*
X93438133Y-125365884D01*
X93390156Y-125371173D01*
X93332812Y-125367870D01*
X93264537Y-125346339D01*
X93184788Y-125306365D01*
X93112505Y-125261057D01*
X93089860Y-125244839D01*
X93052304Y-125216786D01*
X93001979Y-125178570D01*
X92941027Y-125131863D01*
X92871589Y-125078339D01*
X92795806Y-125019669D01*
X92715820Y-124957525D01*
X92633772Y-124893579D01*
X92551804Y-124829505D01*
X92472057Y-124766973D01*
X92396673Y-124707657D01*
X92327793Y-124653229D01*
X92267558Y-124605361D01*
X92218111Y-124565725D01*
X92181592Y-124535994D01*
X92160142Y-124517839D01*
X92156844Y-124514780D01*
X92164851Y-124511921D01*
X92195145Y-124509707D01*
X92247444Y-124508143D01*
X92321469Y-124507233D01*
X92416937Y-124506980D01*
X92533566Y-124507387D01*
X92653555Y-124508296D01*
X92785667Y-124509618D01*
X92897406Y-124511143D01*
X92990975Y-124513119D01*
X93068581Y-124515794D01*
X93132426Y-124519418D01*
X93184717Y-124524239D01*
X93227656Y-124530506D01*
X93263449Y-124538468D01*
X93294300Y-124548373D01*
X93322414Y-124560469D01*
X93349995Y-124575007D01*
X93375034Y-124589689D01*
X93438133Y-124627686D01*
X93438133Y-123567803D01*
X93438133Y-123264966D01*
X93444383Y-123264999D01*
X93546456Y-123265805D01*
X93635367Y-123266830D01*
X93712059Y-123268100D01*
X93777473Y-123269640D01*
X93832551Y-123271476D01*
X93878235Y-123273633D01*
X93915466Y-123276137D01*
X93945187Y-123279013D01*
X93968338Y-123282287D01*
X93985861Y-123285985D01*
X93998699Y-123290131D01*
X94007792Y-123294753D01*
X94014082Y-123299874D01*
X94018512Y-123305522D01*
X94022022Y-123311721D01*
X94025555Y-123318496D01*
X94029124Y-123324492D01*
X94031700Y-123329725D01*
X94034028Y-123337901D01*
X94036122Y-123350114D01*
X94037993Y-123367459D01*
X94039653Y-123391031D01*
X94041116Y-123421923D01*
X94042392Y-123461232D01*
X94043496Y-123510050D01*
X94044439Y-123569473D01*
X94045233Y-123640596D01*
X94045891Y-123724512D01*
X94046425Y-123822317D01*
X94046847Y-123935106D01*
X94047171Y-124063971D01*
X94047408Y-124210009D01*
X94047570Y-124374314D01*
X94047670Y-124557980D01*
X94047720Y-124762103D01*
X94047733Y-124973247D01*
X94047733Y-126593600D01*
X93950946Y-126593600D01*
G36*
X93490929Y-129868429D02*
G01*
X93469755Y-130028570D01*
X93429615Y-130192510D01*
X93370111Y-130362313D01*
X93290846Y-130540043D01*
X93285301Y-130551310D01*
X93257275Y-130609005D01*
X93233198Y-130660552D01*
X93214751Y-130702191D01*
X93203614Y-130730162D01*
X93201067Y-130739733D01*
X93196059Y-130758950D01*
X93191853Y-130763561D01*
X93181420Y-130758458D01*
X93155132Y-130742418D01*
X93115743Y-130717288D01*
X93066009Y-130684914D01*
X93008685Y-130647143D01*
X92946524Y-130605822D01*
X92882282Y-130562798D01*
X92818715Y-130519917D01*
X92758575Y-130479026D01*
X92704620Y-130441971D01*
X92659603Y-130410600D01*
X92626279Y-130386759D01*
X92607403Y-130372294D01*
X92605213Y-130370309D01*
X92609862Y-130360191D01*
X92627038Y-130337850D01*
X92653560Y-130307280D01*
X92668036Y-130291536D01*
X92743318Y-130195047D01*
X92798759Y-130088336D01*
X92833859Y-129972832D01*
X92848120Y-129849962D01*
X92846949Y-129780561D01*
X92829788Y-129659423D01*
X92793906Y-129550205D01*
X92739041Y-129452582D01*
X92664930Y-129366228D01*
X92571312Y-129290815D01*
X92457924Y-129226018D01*
X92371333Y-129188601D01*
X92235634Y-129144748D01*
X92088150Y-129112428D01*
X91932686Y-129091557D01*
X91773044Y-129082051D01*
X91613027Y-129083827D01*
X91456439Y-129096803D01*
X91307082Y-129120894D01*
X91168760Y-129156018D01*
X91045276Y-129202092D01*
X91011022Y-129218373D01*
X90896936Y-129286620D01*
X90800443Y-129367079D01*
X90722330Y-129458570D01*
X90663383Y-129559911D01*
X90624388Y-129669920D01*
X90606132Y-129787415D01*
X90604789Y-129828883D01*
X90615710Y-129950441D01*
X90648526Y-130070878D01*
X90702561Y-130188666D01*
X90777135Y-130302277D01*
X90855461Y-130393685D01*
X90899992Y-130440215D01*
X90602729Y-130621483D01*
X90528567Y-130666580D01*
X90460354Y-130707819D01*
X90400541Y-130743735D01*
X90351580Y-130772866D01*
X90315921Y-130793750D01*
X90296016Y-130804924D01*
X90292921Y-130806375D01*
X90283282Y-130798146D01*
X90266001Y-130772567D01*
X90242717Y-130732873D01*
X90215066Y-130682297D01*
X90184685Y-130624074D01*
X90153210Y-130561437D01*
X90122278Y-130497621D01*
X90093527Y-130435860D01*
X90068592Y-130379388D01*
X90049111Y-130331438D01*
X90040682Y-130307986D01*
X90002867Y-130174221D01*
X89977864Y-130036327D01*
X89964860Y-129888622D01*
X89962532Y-129761833D01*
X89963627Y-129693878D01*
X89965725Y-129628277D01*
X89968566Y-129570847D01*
X89971894Y-129527403D01*
X89973578Y-129513298D01*
X90002413Y-129374284D01*
X90047532Y-129232757D01*
X90106250Y-129095275D01*
X90175880Y-128968394D01*
X90228559Y-128890889D01*
X90336761Y-128763481D01*
X90463329Y-128645178D01*
X90605134Y-128538172D01*
X90759049Y-128444652D01*
X90921947Y-128366810D01*
X91039244Y-128322956D01*
X91222872Y-128272708D01*
X91417419Y-128239209D01*
X91618675Y-128222449D01*
X91822432Y-128222416D01*
X92024479Y-128239101D01*
X92220608Y-128272493D01*
X92406609Y-128322580D01*
X92418197Y-128326397D01*
X92580250Y-128389281D01*
X92728168Y-128466028D01*
X92866135Y-128559242D01*
X92998339Y-128671527D01*
X93043601Y-128715392D01*
X93167543Y-128851534D01*
X93270085Y-128991491D01*
X93352344Y-129137411D01*
X93415436Y-129291442D01*
X93460477Y-129455732D01*
X93477967Y-129551289D01*
X93493534Y-129710023D01*
X93490929Y-129868429D01*
X93490929Y-129868429D01*
G37*
X93490929Y-129868429D02*
X93469755Y-130028570D01*
X93429615Y-130192510D01*
X93370111Y-130362313D01*
X93290846Y-130540043D01*
X93285301Y-130551310D01*
X93257275Y-130609005D01*
X93233198Y-130660552D01*
X93214751Y-130702191D01*
X93203614Y-130730162D01*
X93201067Y-130739733D01*
X93196059Y-130758950D01*
X93191853Y-130763561D01*
X93181420Y-130758458D01*
X93155132Y-130742418D01*
X93115743Y-130717288D01*
X93066009Y-130684914D01*
X93008685Y-130647143D01*
X92946524Y-130605822D01*
X92882282Y-130562798D01*
X92818715Y-130519917D01*
X92758575Y-130479026D01*
X92704620Y-130441971D01*
X92659603Y-130410600D01*
X92626279Y-130386759D01*
X92607403Y-130372294D01*
X92605213Y-130370309D01*
X92609862Y-130360191D01*
X92627038Y-130337850D01*
X92653560Y-130307280D01*
X92668036Y-130291536D01*
X92743318Y-130195047D01*
X92798759Y-130088336D01*
X92833859Y-129972832D01*
X92848120Y-129849962D01*
X92846949Y-129780561D01*
X92829788Y-129659423D01*
X92793906Y-129550205D01*
X92739041Y-129452582D01*
X92664930Y-129366228D01*
X92571312Y-129290815D01*
X92457924Y-129226018D01*
X92371333Y-129188601D01*
X92235634Y-129144748D01*
X92088150Y-129112428D01*
X91932686Y-129091557D01*
X91773044Y-129082051D01*
X91613027Y-129083827D01*
X91456439Y-129096803D01*
X91307082Y-129120894D01*
X91168760Y-129156018D01*
X91045276Y-129202092D01*
X91011022Y-129218373D01*
X90896936Y-129286620D01*
X90800443Y-129367079D01*
X90722330Y-129458570D01*
X90663383Y-129559911D01*
X90624388Y-129669920D01*
X90606132Y-129787415D01*
X90604789Y-129828883D01*
X90615710Y-129950441D01*
X90648526Y-130070878D01*
X90702561Y-130188666D01*
X90777135Y-130302277D01*
X90855461Y-130393685D01*
X90899992Y-130440215D01*
X90602729Y-130621483D01*
X90528567Y-130666580D01*
X90460354Y-130707819D01*
X90400541Y-130743735D01*
X90351580Y-130772866D01*
X90315921Y-130793750D01*
X90296016Y-130804924D01*
X90292921Y-130806375D01*
X90283282Y-130798146D01*
X90266001Y-130772567D01*
X90242717Y-130732873D01*
X90215066Y-130682297D01*
X90184685Y-130624074D01*
X90153210Y-130561437D01*
X90122278Y-130497621D01*
X90093527Y-130435860D01*
X90068592Y-130379388D01*
X90049111Y-130331438D01*
X90040682Y-130307986D01*
X90002867Y-130174221D01*
X89977864Y-130036327D01*
X89964860Y-129888622D01*
X89962532Y-129761833D01*
X89963627Y-129693878D01*
X89965725Y-129628277D01*
X89968566Y-129570847D01*
X89971894Y-129527403D01*
X89973578Y-129513298D01*
X90002413Y-129374284D01*
X90047532Y-129232757D01*
X90106250Y-129095275D01*
X90175880Y-128968394D01*
X90228559Y-128890889D01*
X90336761Y-128763481D01*
X90463329Y-128645178D01*
X90605134Y-128538172D01*
X90759049Y-128444652D01*
X90921947Y-128366810D01*
X91039244Y-128322956D01*
X91222872Y-128272708D01*
X91417419Y-128239209D01*
X91618675Y-128222449D01*
X91822432Y-128222416D01*
X92024479Y-128239101D01*
X92220608Y-128272493D01*
X92406609Y-128322580D01*
X92418197Y-128326397D01*
X92580250Y-128389281D01*
X92728168Y-128466028D01*
X92866135Y-128559242D01*
X92998339Y-128671527D01*
X93043601Y-128715392D01*
X93167543Y-128851534D01*
X93270085Y-128991491D01*
X93352344Y-129137411D01*
X93415436Y-129291442D01*
X93460477Y-129455732D01*
X93477967Y-129551289D01*
X93493534Y-129710023D01*
X93490929Y-129868429D01*
G36*
X92573448Y-132213574D02*
G01*
X92553433Y-132365492D01*
X92519798Y-132500756D01*
X92472275Y-132620239D01*
X92410595Y-132724815D01*
X92347035Y-132802424D01*
X92272901Y-132871265D01*
X92193129Y-132925006D01*
X92100909Y-132967910D01*
X92057839Y-132983384D01*
X92018858Y-132996244D01*
X91982711Y-133007446D01*
X91947566Y-133017120D01*
X91911590Y-133025396D01*
X91872950Y-133032403D01*
X91829815Y-133038272D01*
X91780351Y-133043131D01*
X91722727Y-133047110D01*
X91655109Y-133050340D01*
X91575666Y-133052949D01*
X91482564Y-133055067D01*
X91373973Y-133056824D01*
X91248058Y-133058349D01*
X91102988Y-133059772D01*
X90960222Y-133061025D01*
X90804032Y-133062351D01*
X90668761Y-133063556D01*
X90552754Y-133064766D01*
X90454355Y-133066106D01*
X90371907Y-133067700D01*
X90303754Y-133069675D01*
X90248240Y-133072156D01*
X90203708Y-133075269D01*
X90168502Y-133079138D01*
X90140966Y-133083889D01*
X90119444Y-133089648D01*
X90102278Y-133096539D01*
X90087814Y-133104689D01*
X90074394Y-133114223D01*
X90060362Y-133125266D01*
X90054929Y-133129566D01*
X90032090Y-133145386D01*
X90016537Y-133152422D01*
X90016078Y-133152444D01*
X90013879Y-133141567D01*
X90011853Y-133110582D01*
X90010058Y-133061957D01*
X90008549Y-132998163D01*
X90007384Y-132921669D01*
X90006620Y-132834944D01*
X90006314Y-132740457D01*
X90006311Y-132729550D01*
X90006311Y-132306657D01*
X90102378Y-132303395D01*
X90198444Y-132300133D01*
X90147457Y-132238044D01*
X90079943Y-132140714D01*
X90025251Y-132030813D01*
X89995022Y-131944349D01*
X89980334Y-131875278D01*
X89970341Y-131791925D01*
X89965354Y-131702159D01*
X89965687Y-131613845D01*
X89971649Y-131534851D01*
X89977362Y-131498622D01*
X90015224Y-131358603D01*
X90070068Y-131232178D01*
X90141076Y-131120260D01*
X90227432Y-131023762D01*
X90328321Y-130943600D01*
X90442924Y-130880687D01*
X90569016Y-130836312D01*
X90625599Y-130823978D01*
X90687798Y-130816368D01*
X90762637Y-130812739D01*
X90796533Y-130812245D01*
X90799718Y-130812310D01*
X90799718Y-131572248D01*
X90724667Y-131581541D01*
X90660840Y-131609728D01*
X90605202Y-131658197D01*
X90600789Y-131663254D01*
X90565963Y-131711548D01*
X90543380Y-131763257D01*
X90531460Y-131823989D01*
X90528617Y-131899352D01*
X90529022Y-131917459D01*
X90531675Y-131971278D01*
X90537091Y-132011308D01*
X90547255Y-132046324D01*
X90564150Y-132085103D01*
X90569328Y-132095745D01*
X90605156Y-132156396D01*
X90647788Y-132203215D01*
X90663027Y-132215952D01*
X90719538Y-132260622D01*
X90915414Y-132260622D01*
X90994061Y-132260086D01*
X91052012Y-132258396D01*
X91091125Y-132255428D01*
X91113259Y-132251057D01*
X91119726Y-132246972D01*
X91122889Y-132231047D01*
X91125512Y-132197264D01*
X91127345Y-132150340D01*
X91128143Y-132094993D01*
X91128158Y-132086106D01*
X91122904Y-131965330D01*
X91106737Y-131862660D01*
X91079039Y-131776106D01*
X91039192Y-131703681D01*
X90992242Y-131648751D01*
X90934355Y-131604204D01*
X90871307Y-131579480D01*
X90799718Y-131572248D01*
X90799718Y-130812310D01*
X90890288Y-130814178D01*
X90969188Y-130822522D01*
X91040410Y-130838768D01*
X91111136Y-130864405D01*
X91163507Y-130888401D01*
X91258804Y-130947020D01*
X91346830Y-131025117D01*
X91425983Y-131120315D01*
X91494660Y-131230238D01*
X91551259Y-131352510D01*
X91594179Y-131484755D01*
X91609118Y-131549422D01*
X91631223Y-131685604D01*
X91645806Y-131834049D01*
X91652187Y-131985505D01*
X91650555Y-132112064D01*
X91643776Y-132273950D01*
X91702755Y-132266530D01*
X91801908Y-132247238D01*
X91882628Y-132216104D01*
X91945534Y-132172269D01*
X91991244Y-132114871D01*
X92020378Y-132043048D01*
X92033553Y-131955941D01*
X92031389Y-131852686D01*
X92027388Y-131814711D01*
X92002220Y-131673520D01*
X91961186Y-131536707D01*
X91923185Y-131442178D01*
X91903810Y-131397018D01*
X91888240Y-131358585D01*
X91878595Y-131332234D01*
X91876548Y-131324546D01*
X91885626Y-131314802D01*
X91914595Y-131298083D01*
X91963783Y-131274232D01*
X92033516Y-131243093D01*
X92124121Y-131204507D01*
X92139911Y-131197910D01*
X92212228Y-131167853D01*
X92277575Y-131140874D01*
X92333094Y-131118136D01*
X92375928Y-131100806D01*
X92403219Y-131090048D01*
X92412058Y-131086941D01*
X92416813Y-131096940D01*
X92422090Y-131123217D01*
X92425769Y-131151489D01*
X92430526Y-131181646D01*
X92439972Y-131229433D01*
X92453180Y-131290612D01*
X92469224Y-131360946D01*
X92487180Y-131436194D01*
X92494203Y-131464755D01*
X92519791Y-131569816D01*
X92539853Y-131657480D01*
X92555031Y-131732068D01*
X92565965Y-131797903D01*
X92573296Y-131859307D01*
X92577665Y-131920602D01*
X92579713Y-131986110D01*
X92580111Y-132044128D01*
X92573448Y-132213574D01*
X92573448Y-132213574D01*
G37*
X92573448Y-132213574D02*
X92553433Y-132365492D01*
X92519798Y-132500756D01*
X92472275Y-132620239D01*
X92410595Y-132724815D01*
X92347035Y-132802424D01*
X92272901Y-132871265D01*
X92193129Y-132925006D01*
X92100909Y-132967910D01*
X92057839Y-132983384D01*
X92018858Y-132996244D01*
X91982711Y-133007446D01*
X91947566Y-133017120D01*
X91911590Y-133025396D01*
X91872950Y-133032403D01*
X91829815Y-133038272D01*
X91780351Y-133043131D01*
X91722727Y-133047110D01*
X91655109Y-133050340D01*
X91575666Y-133052949D01*
X91482564Y-133055067D01*
X91373973Y-133056824D01*
X91248058Y-133058349D01*
X91102988Y-133059772D01*
X90960222Y-133061025D01*
X90804032Y-133062351D01*
X90668761Y-133063556D01*
X90552754Y-133064766D01*
X90454355Y-133066106D01*
X90371907Y-133067700D01*
X90303754Y-133069675D01*
X90248240Y-133072156D01*
X90203708Y-133075269D01*
X90168502Y-133079138D01*
X90140966Y-133083889D01*
X90119444Y-133089648D01*
X90102278Y-133096539D01*
X90087814Y-133104689D01*
X90074394Y-133114223D01*
X90060362Y-133125266D01*
X90054929Y-133129566D01*
X90032090Y-133145386D01*
X90016537Y-133152422D01*
X90016078Y-133152444D01*
X90013879Y-133141567D01*
X90011853Y-133110582D01*
X90010058Y-133061957D01*
X90008549Y-132998163D01*
X90007384Y-132921669D01*
X90006620Y-132834944D01*
X90006314Y-132740457D01*
X90006311Y-132729550D01*
X90006311Y-132306657D01*
X90102378Y-132303395D01*
X90198444Y-132300133D01*
X90147457Y-132238044D01*
X90079943Y-132140714D01*
X90025251Y-132030813D01*
X89995022Y-131944349D01*
X89980334Y-131875278D01*
X89970341Y-131791925D01*
X89965354Y-131702159D01*
X89965687Y-131613845D01*
X89971649Y-131534851D01*
X89977362Y-131498622D01*
X90015224Y-131358603D01*
X90070068Y-131232178D01*
X90141076Y-131120260D01*
X90227432Y-131023762D01*
X90328321Y-130943600D01*
X90442924Y-130880687D01*
X90569016Y-130836312D01*
X90625599Y-130823978D01*
X90687798Y-130816368D01*
X90762637Y-130812739D01*
X90796533Y-130812245D01*
X90799718Y-130812310D01*
X90799718Y-131572248D01*
X90724667Y-131581541D01*
X90660840Y-131609728D01*
X90605202Y-131658197D01*
X90600789Y-131663254D01*
X90565963Y-131711548D01*
X90543380Y-131763257D01*
X90531460Y-131823989D01*
X90528617Y-131899352D01*
X90529022Y-131917459D01*
X90531675Y-131971278D01*
X90537091Y-132011308D01*
X90547255Y-132046324D01*
X90564150Y-132085103D01*
X90569328Y-132095745D01*
X90605156Y-132156396D01*
X90647788Y-132203215D01*
X90663027Y-132215952D01*
X90719538Y-132260622D01*
X90915414Y-132260622D01*
X90994061Y-132260086D01*
X91052012Y-132258396D01*
X91091125Y-132255428D01*
X91113259Y-132251057D01*
X91119726Y-132246972D01*
X91122889Y-132231047D01*
X91125512Y-132197264D01*
X91127345Y-132150340D01*
X91128143Y-132094993D01*
X91128158Y-132086106D01*
X91122904Y-131965330D01*
X91106737Y-131862660D01*
X91079039Y-131776106D01*
X91039192Y-131703681D01*
X90992242Y-131648751D01*
X90934355Y-131604204D01*
X90871307Y-131579480D01*
X90799718Y-131572248D01*
X90799718Y-130812310D01*
X90890288Y-130814178D01*
X90969188Y-130822522D01*
X91040410Y-130838768D01*
X91111136Y-130864405D01*
X91163507Y-130888401D01*
X91258804Y-130947020D01*
X91346830Y-131025117D01*
X91425983Y-131120315D01*
X91494660Y-131230238D01*
X91551259Y-131352510D01*
X91594179Y-131484755D01*
X91609118Y-131549422D01*
X91631223Y-131685604D01*
X91645806Y-131834049D01*
X91652187Y-131985505D01*
X91650555Y-132112064D01*
X91643776Y-132273950D01*
X91702755Y-132266530D01*
X91801908Y-132247238D01*
X91882628Y-132216104D01*
X91945534Y-132172269D01*
X91991244Y-132114871D01*
X92020378Y-132043048D01*
X92033553Y-131955941D01*
X92031389Y-131852686D01*
X92027388Y-131814711D01*
X92002220Y-131673520D01*
X91961186Y-131536707D01*
X91923185Y-131442178D01*
X91903810Y-131397018D01*
X91888240Y-131358585D01*
X91878595Y-131332234D01*
X91876548Y-131324546D01*
X91885626Y-131314802D01*
X91914595Y-131298083D01*
X91963783Y-131274232D01*
X92033516Y-131243093D01*
X92124121Y-131204507D01*
X92139911Y-131197910D01*
X92212228Y-131167853D01*
X92277575Y-131140874D01*
X92333094Y-131118136D01*
X92375928Y-131100806D01*
X92403219Y-131090048D01*
X92412058Y-131086941D01*
X92416813Y-131096940D01*
X92422090Y-131123217D01*
X92425769Y-131151489D01*
X92430526Y-131181646D01*
X92439972Y-131229433D01*
X92453180Y-131290612D01*
X92469224Y-131360946D01*
X92487180Y-131436194D01*
X92494203Y-131464755D01*
X92519791Y-131569816D01*
X92539853Y-131657480D01*
X92555031Y-131732068D01*
X92565965Y-131797903D01*
X92573296Y-131859307D01*
X92577665Y-131920602D01*
X92579713Y-131986110D01*
X92580111Y-132044128D01*
X92573448Y-132213574D01*
G36*
X91967755Y-135726507D02*
G01*
X91733338Y-135726526D01*
X91520397Y-135726552D01*
X91327832Y-135726625D01*
X91154541Y-135726782D01*
X90999424Y-135727064D01*
X90861380Y-135727509D01*
X90739308Y-135728156D01*
X90632106Y-135729045D01*
X90538674Y-135730213D01*
X90457910Y-135731701D01*
X90388714Y-135733546D01*
X90329985Y-135735789D01*
X90280621Y-135738469D01*
X90239522Y-135741623D01*
X90205587Y-135745292D01*
X90177714Y-135749513D01*
X90154802Y-135754327D01*
X90135751Y-135759773D01*
X90119460Y-135765888D01*
X90104827Y-135772712D01*
X90090751Y-135780285D01*
X90076132Y-135788645D01*
X90067026Y-135793839D01*
X90006311Y-135828104D01*
X90006311Y-134969955D01*
X90102267Y-134969955D01*
X90145630Y-134969224D01*
X90178795Y-134967272D01*
X90196576Y-134964463D01*
X90198222Y-134963221D01*
X90191338Y-134951799D01*
X90173495Y-134929084D01*
X90154121Y-134906385D01*
X90113386Y-134851800D01*
X90072383Y-134782321D01*
X90034877Y-134705270D01*
X90004636Y-134627965D01*
X89994988Y-134597113D01*
X89980422Y-134528616D01*
X89970461Y-134445764D01*
X89965417Y-134356371D01*
X89965604Y-134268248D01*
X89971334Y-134189207D01*
X89977142Y-134151511D01*
X90015203Y-134013414D01*
X90072927Y-133886113D01*
X90149789Y-133770292D01*
X90245261Y-133666637D01*
X90358821Y-133575833D01*
X90469619Y-133509031D01*
X90586375Y-133454164D01*
X90705724Y-133412163D01*
X90831717Y-133382167D01*
X90968406Y-133363311D01*
X91119842Y-133354732D01*
X91197289Y-133354006D01*
X91254066Y-133356100D01*
X91254066Y-134185217D01*
X91160998Y-134185424D01*
X91073308Y-134188337D01*
X90996228Y-134194000D01*
X90934991Y-134202455D01*
X90922650Y-134205038D01*
X90815367Y-134236840D01*
X90728342Y-134278498D01*
X90661358Y-134330363D01*
X90614195Y-134392781D01*
X90586635Y-134466100D01*
X90578459Y-134550669D01*
X90589449Y-134646835D01*
X90605171Y-134710311D01*
X90623361Y-134759454D01*
X90649209Y-134813583D01*
X90672911Y-134854244D01*
X90719279Y-134924800D01*
X91869470Y-134924800D01*
X91913038Y-134857392D01*
X91953960Y-134778867D01*
X91980611Y-134694681D01*
X91992535Y-134609557D01*
X91989278Y-134528216D01*
X91970385Y-134455380D01*
X91954816Y-134423426D01*
X91911819Y-134365501D01*
X91855047Y-134316544D01*
X91782425Y-134275390D01*
X91691879Y-134240874D01*
X91581334Y-134211833D01*
X91575467Y-134210552D01*
X91513212Y-134200381D01*
X91435406Y-134192739D01*
X91347280Y-134187670D01*
X91254066Y-134185217D01*
X91254066Y-133356100D01*
X91410105Y-133361857D01*
X91605941Y-133383802D01*
X91784668Y-133419786D01*
X91946155Y-133469759D01*
X92090274Y-133533668D01*
X92216894Y-133611462D01*
X92325885Y-133703089D01*
X92417117Y-133808497D01*
X92448068Y-133853662D01*
X92504215Y-133954611D01*
X92543826Y-134057901D01*
X92567986Y-134167989D01*
X92577781Y-134289330D01*
X92576735Y-134381836D01*
X92565769Y-134511490D01*
X92543954Y-134624084D01*
X92510286Y-134722875D01*
X92463764Y-134811121D01*
X92429552Y-134859986D01*
X92407638Y-134889353D01*
X92392667Y-134911043D01*
X92388267Y-134919253D01*
X92399096Y-134920868D01*
X92429749Y-134922159D01*
X92477474Y-134923138D01*
X92539521Y-134923817D01*
X92613138Y-134924210D01*
X92695573Y-134924330D01*
X92784075Y-134924188D01*
X92875893Y-134923797D01*
X92968276Y-134923171D01*
X93058472Y-134922320D01*
X93143729Y-134921260D01*
X93221297Y-134920001D01*
X93288424Y-134918556D01*
X93342359Y-134916938D01*
X93380350Y-134915161D01*
X93387333Y-134914669D01*
X93457749Y-134907092D01*
X93512898Y-134895531D01*
X93560019Y-134877792D01*
X93606353Y-134851682D01*
X93615933Y-134845415D01*
X93652622Y-134820983D01*
X93652622Y-135726311D01*
X91967755Y-135726507D01*
X91967755Y-135726507D01*
G37*
X91967755Y-135726507D02*
X91733338Y-135726526D01*
X91520397Y-135726552D01*
X91327832Y-135726625D01*
X91154541Y-135726782D01*
X90999424Y-135727064D01*
X90861380Y-135727509D01*
X90739308Y-135728156D01*
X90632106Y-135729045D01*
X90538674Y-135730213D01*
X90457910Y-135731701D01*
X90388714Y-135733546D01*
X90329985Y-135735789D01*
X90280621Y-135738469D01*
X90239522Y-135741623D01*
X90205587Y-135745292D01*
X90177714Y-135749513D01*
X90154802Y-135754327D01*
X90135751Y-135759773D01*
X90119460Y-135765888D01*
X90104827Y-135772712D01*
X90090751Y-135780285D01*
X90076132Y-135788645D01*
X90067026Y-135793839D01*
X90006311Y-135828104D01*
X90006311Y-134969955D01*
X90102267Y-134969955D01*
X90145630Y-134969224D01*
X90178795Y-134967272D01*
X90196576Y-134964463D01*
X90198222Y-134963221D01*
X90191338Y-134951799D01*
X90173495Y-134929084D01*
X90154121Y-134906385D01*
X90113386Y-134851800D01*
X90072383Y-134782321D01*
X90034877Y-134705270D01*
X90004636Y-134627965D01*
X89994988Y-134597113D01*
X89980422Y-134528616D01*
X89970461Y-134445764D01*
X89965417Y-134356371D01*
X89965604Y-134268248D01*
X89971334Y-134189207D01*
X89977142Y-134151511D01*
X90015203Y-134013414D01*
X90072927Y-133886113D01*
X90149789Y-133770292D01*
X90245261Y-133666637D01*
X90358821Y-133575833D01*
X90469619Y-133509031D01*
X90586375Y-133454164D01*
X90705724Y-133412163D01*
X90831717Y-133382167D01*
X90968406Y-133363311D01*
X91119842Y-133354732D01*
X91197289Y-133354006D01*
X91254066Y-133356100D01*
X91254066Y-134185217D01*
X91160998Y-134185424D01*
X91073308Y-134188337D01*
X90996228Y-134194000D01*
X90934991Y-134202455D01*
X90922650Y-134205038D01*
X90815367Y-134236840D01*
X90728342Y-134278498D01*
X90661358Y-134330363D01*
X90614195Y-134392781D01*
X90586635Y-134466100D01*
X90578459Y-134550669D01*
X90589449Y-134646835D01*
X90605171Y-134710311D01*
X90623361Y-134759454D01*
X90649209Y-134813583D01*
X90672911Y-134854244D01*
X90719279Y-134924800D01*
X91869470Y-134924800D01*
X91913038Y-134857392D01*
X91953960Y-134778867D01*
X91980611Y-134694681D01*
X91992535Y-134609557D01*
X91989278Y-134528216D01*
X91970385Y-134455380D01*
X91954816Y-134423426D01*
X91911819Y-134365501D01*
X91855047Y-134316544D01*
X91782425Y-134275390D01*
X91691879Y-134240874D01*
X91581334Y-134211833D01*
X91575467Y-134210552D01*
X91513212Y-134200381D01*
X91435406Y-134192739D01*
X91347280Y-134187670D01*
X91254066Y-134185217D01*
X91254066Y-133356100D01*
X91410105Y-133361857D01*
X91605941Y-133383802D01*
X91784668Y-133419786D01*
X91946155Y-133469759D01*
X92090274Y-133533668D01*
X92216894Y-133611462D01*
X92325885Y-133703089D01*
X92417117Y-133808497D01*
X92448068Y-133853662D01*
X92504215Y-133954611D01*
X92543826Y-134057901D01*
X92567986Y-134167989D01*
X92577781Y-134289330D01*
X92576735Y-134381836D01*
X92565769Y-134511490D01*
X92543954Y-134624084D01*
X92510286Y-134722875D01*
X92463764Y-134811121D01*
X92429552Y-134859986D01*
X92407638Y-134889353D01*
X92392667Y-134911043D01*
X92388267Y-134919253D01*
X92399096Y-134920868D01*
X92429749Y-134922159D01*
X92477474Y-134923138D01*
X92539521Y-134923817D01*
X92613138Y-134924210D01*
X92695573Y-134924330D01*
X92784075Y-134924188D01*
X92875893Y-134923797D01*
X92968276Y-134923171D01*
X93058472Y-134922320D01*
X93143729Y-134921260D01*
X93221297Y-134920001D01*
X93288424Y-134918556D01*
X93342359Y-134916938D01*
X93380350Y-134915161D01*
X93387333Y-134914669D01*
X93457749Y-134907092D01*
X93512898Y-134895531D01*
X93560019Y-134877792D01*
X93606353Y-134851682D01*
X93615933Y-134845415D01*
X93652622Y-134820983D01*
X93652622Y-135726311D01*
X91967755Y-135726507D01*
G36*
X94413429Y-127266957D02*
G01*
X94389191Y-127363232D01*
X94346359Y-127449816D01*
X94286581Y-127524627D01*
X94211506Y-127585582D01*
X94122780Y-127630601D01*
X94026470Y-127656864D01*
X93929205Y-127662714D01*
X93835346Y-127647860D01*
X93747489Y-127614160D01*
X93668230Y-127563472D01*
X93600164Y-127497655D01*
X93545888Y-127418566D01*
X93507998Y-127328066D01*
X93495574Y-127276800D01*
X93488053Y-127232302D01*
X93485081Y-127198001D01*
X93486906Y-127165040D01*
X93493775Y-127124566D01*
X93500750Y-127091469D01*
X93532259Y-126998053D01*
X93583383Y-126914381D01*
X93652571Y-126842335D01*
X93738272Y-126783800D01*
X93765511Y-126769852D01*
X93801878Y-126753414D01*
X93832418Y-126743106D01*
X93864550Y-126737540D01*
X93905693Y-126735331D01*
X93951778Y-126735052D01*
X94036135Y-126739139D01*
X94105414Y-126752554D01*
X94166039Y-126777744D01*
X94224433Y-126817154D01*
X94268698Y-126855702D01*
X94334516Y-126927594D01*
X94379947Y-127002687D01*
X94407150Y-127085438D01*
X94417424Y-127163072D01*
X94413429Y-127266957D01*
X94413429Y-127266957D01*
G37*
X94413429Y-127266957D02*
X94389191Y-127363232D01*
X94346359Y-127449816D01*
X94286581Y-127524627D01*
X94211506Y-127585582D01*
X94122780Y-127630601D01*
X94026470Y-127656864D01*
X93929205Y-127662714D01*
X93835346Y-127647860D01*
X93747489Y-127614160D01*
X93668230Y-127563472D01*
X93600164Y-127497655D01*
X93545888Y-127418566D01*
X93507998Y-127328066D01*
X93495574Y-127276800D01*
X93488053Y-127232302D01*
X93485081Y-127198001D01*
X93486906Y-127165040D01*
X93493775Y-127124566D01*
X93500750Y-127091469D01*
X93532259Y-126998053D01*
X93583383Y-126914381D01*
X93652571Y-126842335D01*
X93738272Y-126783800D01*
X93765511Y-126769852D01*
X93801878Y-126753414D01*
X93832418Y-126743106D01*
X93864550Y-126737540D01*
X93905693Y-126735331D01*
X93951778Y-126735052D01*
X94036135Y-126739139D01*
X94105414Y-126752554D01*
X94166039Y-126777744D01*
X94224433Y-126817154D01*
X94268698Y-126855702D01*
X94334516Y-126927594D01*
X94379947Y-127002687D01*
X94407150Y-127085438D01*
X94417424Y-127163072D01*
X94413429Y-127266957D01*
D12*
X138140000Y-100270000D02*
X136890000Y-100270000D01*
X138140000Y-118170000D02*
X138140000Y-100270000D01*
X133640000Y-118170000D02*
X138140000Y-118170000D01*
X133640000Y-100270000D02*
X133640000Y-118170000D01*
X134890000Y-100270000D02*
X133640000Y-100270000D01*
X136890000Y-100270000D02*
G75*
G02X134890000Y-100270000I-1000000J0D01*
G01*
X143410000Y-115030000D02*
X146150000Y-115030000D01*
X146150000Y-115030000D02*
X146150000Y-108490000D01*
X146150000Y-108490000D02*
X143410000Y-108490000D01*
X143410000Y-108490000D02*
X143410000Y-115030000D01*
X144780000Y-115800000D02*
X144780000Y-115030000D01*
X144780000Y-107720000D02*
X144780000Y-108490000D01*
X151030000Y-66770000D02*
X153770000Y-66770000D01*
X153770000Y-66770000D02*
X153770000Y-60230000D01*
X153770000Y-60230000D02*
X151030000Y-60230000D01*
X151030000Y-60230000D02*
X151030000Y-66770000D01*
X152400000Y-67540000D02*
X152400000Y-66770000D01*
X152400000Y-59460000D02*
X152400000Y-60230000D01*
X110620000Y-52170000D02*
X110620000Y-49430000D01*
X118060000Y-52170000D02*
X118060000Y-49430000D01*
X118060000Y-49430000D02*
X110620000Y-49430000D01*
X118060000Y-52170000D02*
X110620000Y-52170000D01*
X87760000Y-97890000D02*
X87760000Y-95150000D01*
X95200000Y-97890000D02*
X95200000Y-95150000D01*
X95200000Y-95150000D02*
X87760000Y-95150000D01*
X95200000Y-97890000D02*
X87760000Y-97890000D01*
X92840000Y-52170000D02*
X92840000Y-49430000D01*
X100280000Y-52170000D02*
X100280000Y-49430000D01*
X100280000Y-49430000D02*
X92840000Y-49430000D01*
X100280000Y-52170000D02*
X92840000Y-52170000D01*
X143700000Y-96230000D02*
X143544000Y-96230000D01*
X146016000Y-96230000D02*
X145860000Y-96230000D01*
X143700163Y-98831130D02*
G75*
G02X143700000Y-96749039I1079837J1041130D01*
G01*
X145859837Y-98831130D02*
G75*
G03X145860000Y-96749039I-1079837J1041130D01*
G01*
X143701392Y-99462335D02*
G75*
G02X143544484Y-96230000I1078608J1672335D01*
G01*
X145858608Y-99462335D02*
G75*
G03X146015516Y-96230000I-1078608J1672335D01*
G01*
X120840000Y-124170000D02*
X120684000Y-124170000D01*
X123156000Y-124170000D02*
X123000000Y-124170000D01*
X120840163Y-126771130D02*
G75*
G02X120840000Y-124689039I1079837J1041130D01*
G01*
X122999837Y-126771130D02*
G75*
G03X123000000Y-124689039I-1079837J1041130D01*
G01*
X120841392Y-127402335D02*
G75*
G02X120684484Y-124170000I1078608J1672335D01*
G01*
X122998608Y-127402335D02*
G75*
G03X123155516Y-124170000I-1078608J1672335D01*
G01*
X115280000Y-100270000D02*
X114030000Y-100270000D01*
X115280000Y-118170000D02*
X115280000Y-100270000D01*
X110780000Y-118170000D02*
X115280000Y-118170000D01*
X110780000Y-100270000D02*
X110780000Y-118170000D01*
X112030000Y-100270000D02*
X110780000Y-100270000D01*
X114030000Y-100270000D02*
G75*
G02X112030000Y-100270000I-1000000J0D01*
G01*
X167180000Y-109620000D02*
X168680000Y-109620000D01*
X171180000Y-108370000D02*
X171180000Y-103870000D01*
X168680000Y-102620000D02*
X167180000Y-102620000D01*
X164680000Y-103870000D02*
X164680000Y-108370000D01*
X167180000Y-96920000D02*
X168680000Y-96920000D01*
X171180000Y-95670000D02*
X171180000Y-91170000D01*
X168680000Y-89920000D02*
X167180000Y-89920000D01*
X164680000Y-91170000D02*
X164680000Y-95670000D01*
X167180000Y-84220000D02*
X168680000Y-84220000D01*
X171180000Y-82970000D02*
X171180000Y-78470000D01*
X168680000Y-77220000D02*
X167180000Y-77220000D01*
X164680000Y-78470000D02*
X164680000Y-82970000D01*
X145990000Y-130870000D02*
X145990000Y-129540000D01*
X147320000Y-130870000D02*
X145990000Y-130870000D01*
X148590000Y-130870000D02*
X148590000Y-128210000D01*
X148590000Y-128210000D02*
X158810000Y-128210000D01*
X148590000Y-130870000D02*
X158810000Y-130870000D01*
X158810000Y-130870000D02*
X158810000Y-128210000D01*
X92420000Y-74870000D02*
X91170000Y-74870000D01*
X92420000Y-92770000D02*
X92420000Y-74870000D01*
X87920000Y-92770000D02*
X92420000Y-92770000D01*
X87920000Y-74870000D02*
X87920000Y-92770000D01*
X89170000Y-74870000D02*
X87920000Y-74870000D01*
X91170000Y-74870000D02*
G75*
G02X89170000Y-74870000I-1000000J0D01*
G01*
X92420000Y-54550000D02*
X91170000Y-54550000D01*
X92420000Y-72450000D02*
X92420000Y-54550000D01*
X87920000Y-72450000D02*
X92420000Y-72450000D01*
X87920000Y-54550000D02*
X87920000Y-72450000D01*
X89170000Y-54550000D02*
X87920000Y-54550000D01*
X91170000Y-54550000D02*
G75*
G02X89170000Y-54550000I-1000000J0D01*
G01*
X115280000Y-120590000D02*
X114030000Y-120590000D01*
X115280000Y-138490000D02*
X115280000Y-120590000D01*
X110780000Y-138490000D02*
X115280000Y-138490000D01*
X110780000Y-120590000D02*
X110780000Y-138490000D01*
X112030000Y-120590000D02*
X110780000Y-120590000D01*
X114030000Y-120590000D02*
G75*
G02X112030000Y-120590000I-1000000J0D01*
G01*
X155920000Y-74870000D02*
X154670000Y-74870000D01*
X155920000Y-92770000D02*
X155920000Y-74870000D01*
X151420000Y-92770000D02*
X155920000Y-92770000D01*
X151420000Y-74870000D02*
X151420000Y-92770000D01*
X152670000Y-74870000D02*
X151420000Y-74870000D01*
X154670000Y-74870000D02*
G75*
G02X152670000Y-74870000I-1000000J0D01*
G01*
X157480000Y-59460000D02*
X157480000Y-60230000D01*
X157480000Y-67540000D02*
X157480000Y-66770000D01*
X156110000Y-60230000D02*
X156110000Y-66770000D01*
X158850000Y-60230000D02*
X156110000Y-60230000D01*
X158850000Y-66770000D02*
X158850000Y-60230000D01*
X156110000Y-66770000D02*
X158850000Y-66770000D01*
X92420000Y-100270000D02*
X91170000Y-100270000D01*
X92420000Y-118170000D02*
X92420000Y-100270000D01*
X87920000Y-118170000D02*
X92420000Y-118170000D01*
X87920000Y-100270000D02*
X87920000Y-118170000D01*
X89170000Y-100270000D02*
X87920000Y-100270000D01*
X91170000Y-100270000D02*
G75*
G02X89170000Y-100270000I-1000000J0D01*
G01*
X120840000Y-108930000D02*
X120684000Y-108930000D01*
X123156000Y-108930000D02*
X123000000Y-108930000D01*
X120840163Y-111531130D02*
G75*
G02X120840000Y-109449039I1079837J1041130D01*
G01*
X122999837Y-111531130D02*
G75*
G03X123000000Y-109449039I-1079837J1041130D01*
G01*
X120841392Y-112162335D02*
G75*
G02X120684484Y-108930000I1078608J1672335D01*
G01*
X122998608Y-112162335D02*
G75*
G03X123155516Y-108930000I-1078608J1672335D01*
G01*
X120840000Y-96230000D02*
X120684000Y-96230000D01*
X123156000Y-96230000D02*
X123000000Y-96230000D01*
X120840163Y-98831130D02*
G75*
G02X120840000Y-96749039I1079837J1041130D01*
G01*
X122999837Y-98831130D02*
G75*
G03X123000000Y-96749039I-1079837J1041130D01*
G01*
X120841392Y-99462335D02*
G75*
G02X120684484Y-96230000I1078608J1672335D01*
G01*
X122998608Y-99462335D02*
G75*
G03X123155516Y-96230000I-1078608J1672335D01*
G01*
X120840000Y-83530000D02*
X120684000Y-83530000D01*
X123156000Y-83530000D02*
X123000000Y-83530000D01*
X120840163Y-86131130D02*
G75*
G02X120840000Y-84049039I1079837J1041130D01*
G01*
X122999837Y-86131130D02*
G75*
G03X123000000Y-84049039I-1079837J1041130D01*
G01*
X120841392Y-86762335D02*
G75*
G02X120684484Y-83530000I1078608J1672335D01*
G01*
X122998608Y-86762335D02*
G75*
G03X123155516Y-83530000I-1078608J1672335D01*
G01*
X120840000Y-70830000D02*
X120684000Y-70830000D01*
X123156000Y-70830000D02*
X123000000Y-70830000D01*
X120840163Y-73431130D02*
G75*
G02X120840000Y-71349039I1079837J1041130D01*
G01*
X122999837Y-73431130D02*
G75*
G03X123000000Y-71349039I-1079837J1041130D01*
G01*
X120841392Y-74062335D02*
G75*
G02X120684484Y-70830000I1078608J1672335D01*
G01*
X122998608Y-74062335D02*
G75*
G03X123155516Y-70830000I-1078608J1672335D01*
G01*
X120840000Y-58130000D02*
X120684000Y-58130000D01*
X123156000Y-58130000D02*
X123000000Y-58130000D01*
X120840163Y-60731130D02*
G75*
G02X120840000Y-58649039I1079837J1041130D01*
G01*
X122999837Y-60731130D02*
G75*
G03X123000000Y-58649039I-1079837J1041130D01*
G01*
X120841392Y-61362335D02*
G75*
G02X120684484Y-58130000I1078608J1672335D01*
G01*
X122998608Y-61362335D02*
G75*
G03X123155516Y-58130000I-1078608J1672335D01*
G01*
X97980000Y-124170000D02*
X97824000Y-124170000D01*
X100296000Y-124170000D02*
X100140000Y-124170000D01*
X97980163Y-126771130D02*
G75*
G02X97980000Y-124689039I1079837J1041130D01*
G01*
X100139837Y-126771130D02*
G75*
G03X100140000Y-124689039I-1079837J1041130D01*
G01*
X97981392Y-127402335D02*
G75*
G02X97824484Y-124170000I1078608J1672335D01*
G01*
X100138608Y-127402335D02*
G75*
G03X100295516Y-124170000I-1078608J1672335D01*
G01*
X97980000Y-108930000D02*
X97824000Y-108930000D01*
X100296000Y-108930000D02*
X100140000Y-108930000D01*
X97980163Y-111531130D02*
G75*
G02X97980000Y-109449039I1079837J1041130D01*
G01*
X100139837Y-111531130D02*
G75*
G03X100140000Y-109449039I-1079837J1041130D01*
G01*
X97981392Y-112162335D02*
G75*
G02X97824484Y-108930000I1078608J1672335D01*
G01*
X100138608Y-112162335D02*
G75*
G03X100295516Y-108930000I-1078608J1672335D01*
G01*
X97980000Y-96230000D02*
X97824000Y-96230000D01*
X100296000Y-96230000D02*
X100140000Y-96230000D01*
X97980163Y-98831130D02*
G75*
G02X97980000Y-96749039I1079837J1041130D01*
G01*
X100139837Y-98831130D02*
G75*
G03X100140000Y-96749039I-1079837J1041130D01*
G01*
X97981392Y-99462335D02*
G75*
G02X97824484Y-96230000I1078608J1672335D01*
G01*
X100138608Y-99462335D02*
G75*
G03X100295516Y-96230000I-1078608J1672335D01*
G01*
X115280000Y-74870000D02*
X114030000Y-74870000D01*
X115280000Y-92770000D02*
X115280000Y-74870000D01*
X110780000Y-92770000D02*
X115280000Y-92770000D01*
X110780000Y-74870000D02*
X110780000Y-92770000D01*
X112030000Y-74870000D02*
X110780000Y-74870000D01*
X114030000Y-74870000D02*
G75*
G02X112030000Y-74870000I-1000000J0D01*
G01*
X115280000Y-54550000D02*
X114030000Y-54550000D01*
X115280000Y-72450000D02*
X115280000Y-54550000D01*
X110780000Y-72450000D02*
X115280000Y-72450000D01*
X110780000Y-54550000D02*
X110780000Y-72450000D01*
X112030000Y-54550000D02*
X110780000Y-54550000D01*
X114030000Y-54550000D02*
G75*
G02X112030000Y-54550000I-1000000J0D01*
G01*
X156310000Y-103410000D02*
X153570000Y-103410000D01*
X153570000Y-103410000D02*
X153570000Y-109950000D01*
X153570000Y-109950000D02*
X156310000Y-109950000D01*
X156310000Y-109950000D02*
X156310000Y-103410000D01*
X154940000Y-102640000D02*
X154940000Y-103410000D01*
X154940000Y-110720000D02*
X154940000Y-109950000D01*
X160020000Y-110720000D02*
X160020000Y-109950000D01*
X160020000Y-102640000D02*
X160020000Y-103410000D01*
X161390000Y-109950000D02*
X161390000Y-103410000D01*
X158650000Y-109950000D02*
X161390000Y-109950000D01*
X158650000Y-103410000D02*
X158650000Y-109950000D01*
X161390000Y-103410000D02*
X158650000Y-103410000D01*
X97980000Y-83530000D02*
X97824000Y-83530000D01*
X100296000Y-83530000D02*
X100140000Y-83530000D01*
X97980163Y-86131130D02*
G75*
G02X97980000Y-84049039I1079837J1041130D01*
G01*
X100139837Y-86131130D02*
G75*
G03X100140000Y-84049039I-1079837J1041130D01*
G01*
X97981392Y-86762335D02*
G75*
G02X97824484Y-83530000I1078608J1672335D01*
G01*
X100138608Y-86762335D02*
G75*
G03X100295516Y-83530000I-1078608J1672335D01*
G01*
X97980000Y-70830000D02*
X97824000Y-70830000D01*
X100296000Y-70830000D02*
X100140000Y-70830000D01*
X97980163Y-73431130D02*
G75*
G02X97980000Y-71349039I1079837J1041130D01*
G01*
X100139837Y-73431130D02*
G75*
G03X100140000Y-71349039I-1079837J1041130D01*
G01*
X97981392Y-74062335D02*
G75*
G02X97824484Y-70830000I1078608J1672335D01*
G01*
X100138608Y-74062335D02*
G75*
G03X100295516Y-70830000I-1078608J1672335D01*
G01*
X145700000Y-66661000D02*
X145700000Y-67919000D01*
X143860000Y-66661000D02*
X143860000Y-67919000D01*
X146400000Y-66661000D02*
X146400000Y-67919000D01*
X148240000Y-66661000D02*
X148240000Y-67919000D01*
X148490000Y-118060000D02*
X148490000Y-110620000D01*
X151230000Y-118060000D02*
X151230000Y-110620000D01*
X148490000Y-118060000D02*
X151230000Y-118060000D01*
X148490000Y-110620000D02*
X151230000Y-110620000D01*
X148490000Y-100460000D02*
X151230000Y-100460000D01*
X148490000Y-107900000D02*
X151230000Y-107900000D01*
X151230000Y-107900000D02*
X151230000Y-100460000D01*
X148490000Y-107900000D02*
X148490000Y-100460000D01*
X138140000Y-120590000D02*
X136890000Y-120590000D01*
X138140000Y-138490000D02*
X138140000Y-120590000D01*
X133640000Y-138490000D02*
X138140000Y-138490000D01*
X133640000Y-120590000D02*
X133640000Y-138490000D01*
X134890000Y-120590000D02*
X133640000Y-120590000D01*
X136890000Y-120590000D02*
G75*
G02X134890000Y-120590000I-1000000J0D01*
G01*
D10*
X134651904Y-73322380D02*
X134651904Y-74131904D01*
X134699523Y-74227142D01*
X134747142Y-74274761D01*
X134842380Y-74322380D01*
X135032857Y-74322380D01*
X135128095Y-74274761D01*
X135175714Y-74227142D01*
X135223333Y-74131904D01*
X135223333Y-73322380D01*
X136223333Y-74322380D02*
X135651904Y-74322380D01*
X135937619Y-74322380D02*
X135937619Y-73322380D01*
X135842380Y-73465238D01*
X135747142Y-73560476D01*
X135651904Y-73608095D01*
X136604285Y-73417619D02*
X136651904Y-73370000D01*
X136747142Y-73322380D01*
X136985238Y-73322380D01*
X137080476Y-73370000D01*
X137128095Y-73417619D01*
X137175714Y-73512857D01*
X137175714Y-73608095D01*
X137128095Y-73750952D01*
X136556666Y-74322380D01*
X137175714Y-74322380D01*
X165497142Y-66246666D02*
X165544761Y-66294285D01*
X165592380Y-66437142D01*
X165592380Y-66532380D01*
X165544761Y-66675238D01*
X165449523Y-66770476D01*
X165354285Y-66818095D01*
X165163809Y-66865714D01*
X165020952Y-66865714D01*
X164830476Y-66818095D01*
X164735238Y-66770476D01*
X164640000Y-66675238D01*
X164592380Y-66532380D01*
X164592380Y-66437142D01*
X164640000Y-66294285D01*
X164687619Y-66246666D01*
X164592380Y-65913333D02*
X164592380Y-65294285D01*
X164973333Y-65627619D01*
X164973333Y-65484761D01*
X165020952Y-65389523D01*
X165068571Y-65341904D01*
X165163809Y-65294285D01*
X165401904Y-65294285D01*
X165497142Y-65341904D01*
X165544761Y-65389523D01*
X165592380Y-65484761D01*
X165592380Y-65770476D01*
X165544761Y-65865714D01*
X165497142Y-65913333D01*
X160642380Y-64142857D02*
X160166190Y-64476190D01*
X160642380Y-64714285D02*
X159642380Y-64714285D01*
X159642380Y-64333333D01*
X159690000Y-64238095D01*
X159737619Y-64190476D01*
X159832857Y-64142857D01*
X159975714Y-64142857D01*
X160070952Y-64190476D01*
X160118571Y-64238095D01*
X160166190Y-64333333D01*
X160166190Y-64714285D01*
X160642380Y-63190476D02*
X160642380Y-63761904D01*
X160642380Y-63476190D02*
X159642380Y-63476190D01*
X159785238Y-63571428D01*
X159880476Y-63666666D01*
X159928095Y-63761904D01*
X159642380Y-62285714D02*
X159642380Y-62761904D01*
X160118571Y-62809523D01*
X160070952Y-62761904D01*
X160023333Y-62666666D01*
X160023333Y-62428571D01*
X160070952Y-62333333D01*
X160118571Y-62285714D01*
X160213809Y-62238095D01*
X160451904Y-62238095D01*
X160547142Y-62285714D01*
X160594761Y-62333333D01*
X160642380Y-62428571D01*
X160642380Y-62666666D01*
X160594761Y-62761904D01*
X160547142Y-62809523D01*
X135128095Y-50462380D02*
X135128095Y-51271904D01*
X135175714Y-51367142D01*
X135223333Y-51414761D01*
X135318571Y-51462380D01*
X135509047Y-51462380D01*
X135604285Y-51414761D01*
X135651904Y-51367142D01*
X135699523Y-51271904D01*
X135699523Y-50462380D01*
X136318571Y-50890952D02*
X136223333Y-50843333D01*
X136175714Y-50795714D01*
X136128095Y-50700476D01*
X136128095Y-50652857D01*
X136175714Y-50557619D01*
X136223333Y-50510000D01*
X136318571Y-50462380D01*
X136509047Y-50462380D01*
X136604285Y-50510000D01*
X136651904Y-50557619D01*
X136699523Y-50652857D01*
X136699523Y-50700476D01*
X136651904Y-50795714D01*
X136604285Y-50843333D01*
X136509047Y-50890952D01*
X136318571Y-50890952D01*
X136223333Y-50938571D01*
X136175714Y-50986190D01*
X136128095Y-51081428D01*
X136128095Y-51271904D01*
X136175714Y-51367142D01*
X136223333Y-51414761D01*
X136318571Y-51462380D01*
X136509047Y-51462380D01*
X136604285Y-51414761D01*
X136651904Y-51367142D01*
X136699523Y-51271904D01*
X136699523Y-51081428D01*
X136651904Y-50986190D01*
X136604285Y-50938571D01*
X136509047Y-50890952D01*
X131437142Y-96877142D02*
X131389523Y-96924761D01*
X131246666Y-96972380D01*
X131151428Y-96972380D01*
X131008571Y-96924761D01*
X130913333Y-96829523D01*
X130865714Y-96734285D01*
X130818095Y-96543809D01*
X130818095Y-96400952D01*
X130865714Y-96210476D01*
X130913333Y-96115238D01*
X131008571Y-96020000D01*
X131151428Y-95972380D01*
X131246666Y-95972380D01*
X131389523Y-96020000D01*
X131437142Y-96067619D01*
X132389523Y-96972380D02*
X131818095Y-96972380D01*
X132103809Y-96972380D02*
X132103809Y-95972380D01*
X132008571Y-96115238D01*
X131913333Y-96210476D01*
X131818095Y-96258095D01*
X133341904Y-96972380D02*
X132770476Y-96972380D01*
X133056190Y-96972380D02*
X133056190Y-95972380D01*
X132960952Y-96115238D01*
X132865714Y-96210476D01*
X132770476Y-96258095D01*
X157797142Y-119982857D02*
X157844761Y-120030476D01*
X157892380Y-120173333D01*
X157892380Y-120268571D01*
X157844761Y-120411428D01*
X157749523Y-120506666D01*
X157654285Y-120554285D01*
X157463809Y-120601904D01*
X157320952Y-120601904D01*
X157130476Y-120554285D01*
X157035238Y-120506666D01*
X156940000Y-120411428D01*
X156892380Y-120268571D01*
X156892380Y-120173333D01*
X156940000Y-120030476D01*
X156987619Y-119982857D01*
X157892380Y-119030476D02*
X157892380Y-119601904D01*
X157892380Y-119316190D02*
X156892380Y-119316190D01*
X157035238Y-119411428D01*
X157130476Y-119506666D01*
X157178095Y-119601904D01*
X156987619Y-118649523D02*
X156940000Y-118601904D01*
X156892380Y-118506666D01*
X156892380Y-118268571D01*
X156940000Y-118173333D01*
X156987619Y-118125714D01*
X157082857Y-118078095D01*
X157178095Y-118078095D01*
X157320952Y-118125714D01*
X157892380Y-118697142D01*
X157892380Y-118078095D01*
X131437142Y-48617142D02*
X131389523Y-48664761D01*
X131246666Y-48712380D01*
X131151428Y-48712380D01*
X131008571Y-48664761D01*
X130913333Y-48569523D01*
X130865714Y-48474285D01*
X130818095Y-48283809D01*
X130818095Y-48140952D01*
X130865714Y-47950476D01*
X130913333Y-47855238D01*
X131008571Y-47760000D01*
X131151428Y-47712380D01*
X131246666Y-47712380D01*
X131389523Y-47760000D01*
X131437142Y-47807619D01*
X132389523Y-48712380D02*
X131818095Y-48712380D01*
X132103809Y-48712380D02*
X132103809Y-47712380D01*
X132008571Y-47855238D01*
X131913333Y-47950476D01*
X131818095Y-47998095D01*
X133008571Y-47712380D02*
X133103809Y-47712380D01*
X133199047Y-47760000D01*
X133246666Y-47807619D01*
X133294285Y-47902857D01*
X133341904Y-48093333D01*
X133341904Y-48331428D01*
X133294285Y-48521904D01*
X133246666Y-48617142D01*
X133199047Y-48664761D01*
X133103809Y-48712380D01*
X133008571Y-48712380D01*
X132913333Y-48664761D01*
X132865714Y-48617142D01*
X132818095Y-48521904D01*
X132770476Y-48331428D01*
X132770476Y-48093333D01*
X132818095Y-47902857D01*
X132865714Y-47807619D01*
X132913333Y-47760000D01*
X133008571Y-47712380D01*
X109053333Y-96877142D02*
X109005714Y-96924761D01*
X108862857Y-96972380D01*
X108767619Y-96972380D01*
X108624761Y-96924761D01*
X108529523Y-96829523D01*
X108481904Y-96734285D01*
X108434285Y-96543809D01*
X108434285Y-96400952D01*
X108481904Y-96210476D01*
X108529523Y-96115238D01*
X108624761Y-96020000D01*
X108767619Y-95972380D01*
X108862857Y-95972380D01*
X109005714Y-96020000D01*
X109053333Y-96067619D01*
X109529523Y-96972380D02*
X109720000Y-96972380D01*
X109815238Y-96924761D01*
X109862857Y-96877142D01*
X109958095Y-96734285D01*
X110005714Y-96543809D01*
X110005714Y-96162857D01*
X109958095Y-96067619D01*
X109910476Y-96020000D01*
X109815238Y-95972380D01*
X109624761Y-95972380D01*
X109529523Y-96020000D01*
X109481904Y-96067619D01*
X109434285Y-96162857D01*
X109434285Y-96400952D01*
X109481904Y-96496190D01*
X109529523Y-96543809D01*
X109624761Y-96591428D01*
X109815238Y-96591428D01*
X109910476Y-96543809D01*
X109958095Y-96496190D01*
X110005714Y-96400952D01*
X167317142Y-121272857D02*
X167364761Y-121320476D01*
X167412380Y-121463333D01*
X167412380Y-121558571D01*
X167364761Y-121701428D01*
X167269523Y-121796666D01*
X167174285Y-121844285D01*
X166983809Y-121891904D01*
X166840952Y-121891904D01*
X166650476Y-121844285D01*
X166555238Y-121796666D01*
X166460000Y-121701428D01*
X166412380Y-121558571D01*
X166412380Y-121463333D01*
X166460000Y-121320476D01*
X166507619Y-121272857D01*
X167412380Y-120320476D02*
X167412380Y-120891904D01*
X167412380Y-120606190D02*
X166412380Y-120606190D01*
X166555238Y-120701428D01*
X166650476Y-120796666D01*
X166698095Y-120891904D01*
X166412380Y-119987142D02*
X166412380Y-119368095D01*
X166793333Y-119701428D01*
X166793333Y-119558571D01*
X166840952Y-119463333D01*
X166888571Y-119415714D01*
X166983809Y-119368095D01*
X167221904Y-119368095D01*
X167317142Y-119415714D01*
X167364761Y-119463333D01*
X167412380Y-119558571D01*
X167412380Y-119844285D01*
X167364761Y-119939523D01*
X167317142Y-119987142D01*
X129852380Y-98480476D02*
X129376190Y-98813809D01*
X129852380Y-99051904D02*
X128852380Y-99051904D01*
X128852380Y-98670952D01*
X128900000Y-98575714D01*
X128947619Y-98528095D01*
X129042857Y-98480476D01*
X129185714Y-98480476D01*
X129280952Y-98528095D01*
X129328571Y-98575714D01*
X129376190Y-98670952D01*
X129376190Y-99051904D01*
X129852380Y-98051904D02*
X128852380Y-98051904D01*
X129852380Y-97480476D01*
X128852380Y-97480476D01*
X128947619Y-97051904D02*
X128900000Y-97004285D01*
X128852380Y-96909047D01*
X128852380Y-96670952D01*
X128900000Y-96575714D01*
X128947619Y-96528095D01*
X129042857Y-96480476D01*
X129138095Y-96480476D01*
X129280952Y-96528095D01*
X129852380Y-97099523D01*
X129852380Y-96480476D01*
X106992380Y-98480476D02*
X106516190Y-98813809D01*
X106992380Y-99051904D02*
X105992380Y-99051904D01*
X105992380Y-98670952D01*
X106040000Y-98575714D01*
X106087619Y-98528095D01*
X106182857Y-98480476D01*
X106325714Y-98480476D01*
X106420952Y-98528095D01*
X106468571Y-98575714D01*
X106516190Y-98670952D01*
X106516190Y-99051904D01*
X106992380Y-98051904D02*
X105992380Y-98051904D01*
X106992380Y-97480476D01*
X105992380Y-97480476D01*
X106992380Y-96480476D02*
X106992380Y-97051904D01*
X106992380Y-96766190D02*
X105992380Y-96766190D01*
X106135238Y-96861428D01*
X106230476Y-96956666D01*
X106278095Y-97051904D01*
X149836190Y-58896190D02*
X150312380Y-58896190D01*
X149312380Y-59229523D02*
X149836190Y-58896190D01*
X149312380Y-58562857D01*
X150312380Y-57705714D02*
X150312380Y-58277142D01*
X150312380Y-57991428D02*
X149312380Y-57991428D01*
X149455238Y-58086666D01*
X149550476Y-58181904D01*
X149598095Y-58277142D01*
X135128095Y-98722380D02*
X135128095Y-99531904D01*
X135175714Y-99627142D01*
X135223333Y-99674761D01*
X135318571Y-99722380D01*
X135509047Y-99722380D01*
X135604285Y-99674761D01*
X135651904Y-99627142D01*
X135699523Y-99531904D01*
X135699523Y-98722380D01*
X136223333Y-99722380D02*
X136413809Y-99722380D01*
X136509047Y-99674761D01*
X136556666Y-99627142D01*
X136651904Y-99484285D01*
X136699523Y-99293809D01*
X136699523Y-98912857D01*
X136651904Y-98817619D01*
X136604285Y-98770000D01*
X136509047Y-98722380D01*
X136318571Y-98722380D01*
X136223333Y-98770000D01*
X136175714Y-98817619D01*
X136128095Y-98912857D01*
X136128095Y-99150952D01*
X136175714Y-99246190D01*
X136223333Y-99293809D01*
X136318571Y-99341428D01*
X136509047Y-99341428D01*
X136604285Y-99293809D01*
X136651904Y-99246190D01*
X136699523Y-99150952D01*
X142862380Y-112402857D02*
X142386190Y-112736190D01*
X142862380Y-112974285D02*
X141862380Y-112974285D01*
X141862380Y-112593333D01*
X141910000Y-112498095D01*
X141957619Y-112450476D01*
X142052857Y-112402857D01*
X142195714Y-112402857D01*
X142290952Y-112450476D01*
X142338571Y-112498095D01*
X142386190Y-112593333D01*
X142386190Y-112974285D01*
X142862380Y-111450476D02*
X142862380Y-112021904D01*
X142862380Y-111736190D02*
X141862380Y-111736190D01*
X142005238Y-111831428D01*
X142100476Y-111926666D01*
X142148095Y-112021904D01*
X141957619Y-111069523D02*
X141910000Y-111021904D01*
X141862380Y-110926666D01*
X141862380Y-110688571D01*
X141910000Y-110593333D01*
X141957619Y-110545714D01*
X142052857Y-110498095D01*
X142148095Y-110498095D01*
X142290952Y-110545714D01*
X142862380Y-111117142D01*
X142862380Y-110498095D01*
X150482380Y-64142857D02*
X150006190Y-64476190D01*
X150482380Y-64714285D02*
X149482380Y-64714285D01*
X149482380Y-64333333D01*
X149530000Y-64238095D01*
X149577619Y-64190476D01*
X149672857Y-64142857D01*
X149815714Y-64142857D01*
X149910952Y-64190476D01*
X149958571Y-64238095D01*
X150006190Y-64333333D01*
X150006190Y-64714285D01*
X150482380Y-63190476D02*
X150482380Y-63761904D01*
X150482380Y-63476190D02*
X149482380Y-63476190D01*
X149625238Y-63571428D01*
X149720476Y-63666666D01*
X149768095Y-63761904D01*
X149482380Y-62857142D02*
X149482380Y-62238095D01*
X149863333Y-62571428D01*
X149863333Y-62428571D01*
X149910952Y-62333333D01*
X149958571Y-62285714D01*
X150053809Y-62238095D01*
X150291904Y-62238095D01*
X150387142Y-62285714D01*
X150434761Y-62333333D01*
X150482380Y-62428571D01*
X150482380Y-62714285D01*
X150434761Y-62809523D01*
X150387142Y-62857142D01*
X114173333Y-48617142D02*
X114125714Y-48664761D01*
X113982857Y-48712380D01*
X113887619Y-48712380D01*
X113744761Y-48664761D01*
X113649523Y-48569523D01*
X113601904Y-48474285D01*
X113554285Y-48283809D01*
X113554285Y-48140952D01*
X113601904Y-47950476D01*
X113649523Y-47855238D01*
X113744761Y-47760000D01*
X113887619Y-47712380D01*
X113982857Y-47712380D01*
X114125714Y-47760000D01*
X114173333Y-47807619D01*
X114744761Y-48140952D02*
X114649523Y-48093333D01*
X114601904Y-48045714D01*
X114554285Y-47950476D01*
X114554285Y-47902857D01*
X114601904Y-47807619D01*
X114649523Y-47760000D01*
X114744761Y-47712380D01*
X114935238Y-47712380D01*
X115030476Y-47760000D01*
X115078095Y-47807619D01*
X115125714Y-47902857D01*
X115125714Y-47950476D01*
X115078095Y-48045714D01*
X115030476Y-48093333D01*
X114935238Y-48140952D01*
X114744761Y-48140952D01*
X114649523Y-48188571D01*
X114601904Y-48236190D01*
X114554285Y-48331428D01*
X114554285Y-48521904D01*
X114601904Y-48617142D01*
X114649523Y-48664761D01*
X114744761Y-48712380D01*
X114935238Y-48712380D01*
X115030476Y-48664761D01*
X115078095Y-48617142D01*
X115125714Y-48521904D01*
X115125714Y-48331428D01*
X115078095Y-48236190D01*
X115030476Y-48188571D01*
X114935238Y-48140952D01*
X86193333Y-96877142D02*
X86145714Y-96924761D01*
X86002857Y-96972380D01*
X85907619Y-96972380D01*
X85764761Y-96924761D01*
X85669523Y-96829523D01*
X85621904Y-96734285D01*
X85574285Y-96543809D01*
X85574285Y-96400952D01*
X85621904Y-96210476D01*
X85669523Y-96115238D01*
X85764761Y-96020000D01*
X85907619Y-95972380D01*
X86002857Y-95972380D01*
X86145714Y-96020000D01*
X86193333Y-96067619D01*
X86526666Y-95972380D02*
X87193333Y-95972380D01*
X86764761Y-96972380D01*
X96353333Y-48617142D02*
X96305714Y-48664761D01*
X96162857Y-48712380D01*
X96067619Y-48712380D01*
X95924761Y-48664761D01*
X95829523Y-48569523D01*
X95781904Y-48474285D01*
X95734285Y-48283809D01*
X95734285Y-48140952D01*
X95781904Y-47950476D01*
X95829523Y-47855238D01*
X95924761Y-47760000D01*
X96067619Y-47712380D01*
X96162857Y-47712380D01*
X96305714Y-47760000D01*
X96353333Y-47807619D01*
X97210476Y-47712380D02*
X97020000Y-47712380D01*
X96924761Y-47760000D01*
X96877142Y-47807619D01*
X96781904Y-47950476D01*
X96734285Y-48140952D01*
X96734285Y-48521904D01*
X96781904Y-48617142D01*
X96829523Y-48664761D01*
X96924761Y-48712380D01*
X97115238Y-48712380D01*
X97210476Y-48664761D01*
X97258095Y-48617142D01*
X97305714Y-48521904D01*
X97305714Y-48283809D01*
X97258095Y-48188571D01*
X97210476Y-48140952D01*
X97115238Y-48093333D01*
X96924761Y-48093333D01*
X96829523Y-48140952D01*
X96781904Y-48188571D01*
X96734285Y-48283809D01*
X148192380Y-99004285D02*
X147192380Y-99004285D01*
X147192380Y-98766190D01*
X147240000Y-98623333D01*
X147335238Y-98528095D01*
X147430476Y-98480476D01*
X147620952Y-98432857D01*
X147763809Y-98432857D01*
X147954285Y-98480476D01*
X148049523Y-98528095D01*
X148144761Y-98623333D01*
X148192380Y-98766190D01*
X148192380Y-99004285D01*
X148192380Y-97480476D02*
X148192380Y-98051904D01*
X148192380Y-97766190D02*
X147192380Y-97766190D01*
X147335238Y-97861428D01*
X147430476Y-97956666D01*
X147478095Y-98051904D01*
X147287619Y-97099523D02*
X147240000Y-97051904D01*
X147192380Y-96956666D01*
X147192380Y-96718571D01*
X147240000Y-96623333D01*
X147287619Y-96575714D01*
X147382857Y-96528095D01*
X147478095Y-96528095D01*
X147620952Y-96575714D01*
X148192380Y-97147142D01*
X148192380Y-96528095D01*
X125332380Y-126944285D02*
X124332380Y-126944285D01*
X124332380Y-126706190D01*
X124380000Y-126563333D01*
X124475238Y-126468095D01*
X124570476Y-126420476D01*
X124760952Y-126372857D01*
X124903809Y-126372857D01*
X125094285Y-126420476D01*
X125189523Y-126468095D01*
X125284761Y-126563333D01*
X125332380Y-126706190D01*
X125332380Y-126944285D01*
X125332380Y-125420476D02*
X125332380Y-125991904D01*
X125332380Y-125706190D02*
X124332380Y-125706190D01*
X124475238Y-125801428D01*
X124570476Y-125896666D01*
X124618095Y-125991904D01*
X125332380Y-124468095D02*
X125332380Y-125039523D01*
X125332380Y-124753809D02*
X124332380Y-124753809D01*
X124475238Y-124849047D01*
X124570476Y-124944285D01*
X124618095Y-125039523D01*
X112268095Y-98722380D02*
X112268095Y-99531904D01*
X112315714Y-99627142D01*
X112363333Y-99674761D01*
X112458571Y-99722380D01*
X112649047Y-99722380D01*
X112744285Y-99674761D01*
X112791904Y-99627142D01*
X112839523Y-99531904D01*
X112839523Y-98722380D01*
X113744285Y-98722380D02*
X113553809Y-98722380D01*
X113458571Y-98770000D01*
X113410952Y-98817619D01*
X113315714Y-98960476D01*
X113268095Y-99150952D01*
X113268095Y-99531904D01*
X113315714Y-99627142D01*
X113363333Y-99674761D01*
X113458571Y-99722380D01*
X113649047Y-99722380D01*
X113744285Y-99674761D01*
X113791904Y-99627142D01*
X113839523Y-99531904D01*
X113839523Y-99293809D01*
X113791904Y-99198571D01*
X113744285Y-99150952D01*
X113649047Y-99103333D01*
X113458571Y-99103333D01*
X113363333Y-99150952D01*
X113315714Y-99198571D01*
X113268095Y-99293809D01*
X172584761Y-107453333D02*
X172632380Y-107310476D01*
X172632380Y-107072380D01*
X172584761Y-106977142D01*
X172537142Y-106929523D01*
X172441904Y-106881904D01*
X172346666Y-106881904D01*
X172251428Y-106929523D01*
X172203809Y-106977142D01*
X172156190Y-107072380D01*
X172108571Y-107262857D01*
X172060952Y-107358095D01*
X172013333Y-107405714D01*
X171918095Y-107453333D01*
X171822857Y-107453333D01*
X171727619Y-107405714D01*
X171680000Y-107358095D01*
X171632380Y-107262857D01*
X171632380Y-107024761D01*
X171680000Y-106881904D01*
X171632380Y-106548571D02*
X172632380Y-106310476D01*
X171918095Y-106120000D01*
X172632380Y-105929523D01*
X171632380Y-105691428D01*
X172632380Y-104786666D02*
X172632380Y-105358095D01*
X172632380Y-105072380D02*
X171632380Y-105072380D01*
X171775238Y-105167619D01*
X171870476Y-105262857D01*
X171918095Y-105358095D01*
X172584761Y-94753333D02*
X172632380Y-94610476D01*
X172632380Y-94372380D01*
X172584761Y-94277142D01*
X172537142Y-94229523D01*
X172441904Y-94181904D01*
X172346666Y-94181904D01*
X172251428Y-94229523D01*
X172203809Y-94277142D01*
X172156190Y-94372380D01*
X172108571Y-94562857D01*
X172060952Y-94658095D01*
X172013333Y-94705714D01*
X171918095Y-94753333D01*
X171822857Y-94753333D01*
X171727619Y-94705714D01*
X171680000Y-94658095D01*
X171632380Y-94562857D01*
X171632380Y-94324761D01*
X171680000Y-94181904D01*
X171632380Y-93848571D02*
X172632380Y-93610476D01*
X171918095Y-93420000D01*
X172632380Y-93229523D01*
X171632380Y-92991428D01*
X171727619Y-92658095D02*
X171680000Y-92610476D01*
X171632380Y-92515238D01*
X171632380Y-92277142D01*
X171680000Y-92181904D01*
X171727619Y-92134285D01*
X171822857Y-92086666D01*
X171918095Y-92086666D01*
X172060952Y-92134285D01*
X172632380Y-92705714D01*
X172632380Y-92086666D01*
X172584761Y-82053333D02*
X172632380Y-81910476D01*
X172632380Y-81672380D01*
X172584761Y-81577142D01*
X172537142Y-81529523D01*
X172441904Y-81481904D01*
X172346666Y-81481904D01*
X172251428Y-81529523D01*
X172203809Y-81577142D01*
X172156190Y-81672380D01*
X172108571Y-81862857D01*
X172060952Y-81958095D01*
X172013333Y-82005714D01*
X171918095Y-82053333D01*
X171822857Y-82053333D01*
X171727619Y-82005714D01*
X171680000Y-81958095D01*
X171632380Y-81862857D01*
X171632380Y-81624761D01*
X171680000Y-81481904D01*
X171632380Y-81148571D02*
X172632380Y-80910476D01*
X171918095Y-80720000D01*
X172632380Y-80529523D01*
X171632380Y-80291428D01*
X171632380Y-80005714D02*
X171632380Y-79386666D01*
X172013333Y-79720000D01*
X172013333Y-79577142D01*
X172060952Y-79481904D01*
X172108571Y-79434285D01*
X172203809Y-79386666D01*
X172441904Y-79386666D01*
X172537142Y-79434285D01*
X172584761Y-79481904D01*
X172632380Y-79577142D01*
X172632380Y-79862857D01*
X172584761Y-79958095D01*
X172537142Y-80005714D01*
X89408095Y-73322380D02*
X89408095Y-74131904D01*
X89455714Y-74227142D01*
X89503333Y-74274761D01*
X89598571Y-74322380D01*
X89789047Y-74322380D01*
X89884285Y-74274761D01*
X89931904Y-74227142D01*
X89979523Y-74131904D01*
X89979523Y-73322380D01*
X90408095Y-73417619D02*
X90455714Y-73370000D01*
X90550952Y-73322380D01*
X90789047Y-73322380D01*
X90884285Y-73370000D01*
X90931904Y-73417619D01*
X90979523Y-73512857D01*
X90979523Y-73608095D01*
X90931904Y-73750952D01*
X90360476Y-74322380D01*
X90979523Y-74322380D01*
X89408095Y-53002380D02*
X89408095Y-53811904D01*
X89455714Y-53907142D01*
X89503333Y-53954761D01*
X89598571Y-54002380D01*
X89789047Y-54002380D01*
X89884285Y-53954761D01*
X89931904Y-53907142D01*
X89979523Y-53811904D01*
X89979523Y-53002380D01*
X90979523Y-54002380D02*
X90408095Y-54002380D01*
X90693809Y-54002380D02*
X90693809Y-53002380D01*
X90598571Y-53145238D01*
X90503333Y-53240476D01*
X90408095Y-53288095D01*
X112268095Y-119042380D02*
X112268095Y-119851904D01*
X112315714Y-119947142D01*
X112363333Y-119994761D01*
X112458571Y-120042380D01*
X112649047Y-120042380D01*
X112744285Y-119994761D01*
X112791904Y-119947142D01*
X112839523Y-119851904D01*
X112839523Y-119042380D01*
X113220476Y-119042380D02*
X113887142Y-119042380D01*
X113458571Y-120042380D01*
X152431904Y-73322380D02*
X152431904Y-74131904D01*
X152479523Y-74227142D01*
X152527142Y-74274761D01*
X152622380Y-74322380D01*
X152812857Y-74322380D01*
X152908095Y-74274761D01*
X152955714Y-74227142D01*
X153003333Y-74131904D01*
X153003333Y-73322380D01*
X154003333Y-74322380D02*
X153431904Y-74322380D01*
X153717619Y-74322380D02*
X153717619Y-73322380D01*
X153622380Y-73465238D01*
X153527142Y-73560476D01*
X153431904Y-73608095D01*
X154955714Y-74322380D02*
X154384285Y-74322380D01*
X154670000Y-74322380D02*
X154670000Y-73322380D01*
X154574761Y-73465238D01*
X154479523Y-73560476D01*
X154384285Y-73608095D01*
X155392380Y-64142857D02*
X154916190Y-64476190D01*
X155392380Y-64714285D02*
X154392380Y-64714285D01*
X154392380Y-64333333D01*
X154440000Y-64238095D01*
X154487619Y-64190476D01*
X154582857Y-64142857D01*
X154725714Y-64142857D01*
X154820952Y-64190476D01*
X154868571Y-64238095D01*
X154916190Y-64333333D01*
X154916190Y-64714285D01*
X155392380Y-63190476D02*
X155392380Y-63761904D01*
X155392380Y-63476190D02*
X154392380Y-63476190D01*
X154535238Y-63571428D01*
X154630476Y-63666666D01*
X154678095Y-63761904D01*
X154725714Y-62333333D02*
X155392380Y-62333333D01*
X154344761Y-62571428D02*
X155059047Y-62809523D01*
X155059047Y-62190476D01*
X89408095Y-98722380D02*
X89408095Y-99531904D01*
X89455714Y-99627142D01*
X89503333Y-99674761D01*
X89598571Y-99722380D01*
X89789047Y-99722380D01*
X89884285Y-99674761D01*
X89931904Y-99627142D01*
X89979523Y-99531904D01*
X89979523Y-98722380D01*
X90360476Y-98722380D02*
X90979523Y-98722380D01*
X90646190Y-99103333D01*
X90789047Y-99103333D01*
X90884285Y-99150952D01*
X90931904Y-99198571D01*
X90979523Y-99293809D01*
X90979523Y-99531904D01*
X90931904Y-99627142D01*
X90884285Y-99674761D01*
X90789047Y-99722380D01*
X90503333Y-99722380D01*
X90408095Y-99674761D01*
X90360476Y-99627142D01*
X125332380Y-111704285D02*
X124332380Y-111704285D01*
X124332380Y-111466190D01*
X124380000Y-111323333D01*
X124475238Y-111228095D01*
X124570476Y-111180476D01*
X124760952Y-111132857D01*
X124903809Y-111132857D01*
X125094285Y-111180476D01*
X125189523Y-111228095D01*
X125284761Y-111323333D01*
X125332380Y-111466190D01*
X125332380Y-111704285D01*
X125332380Y-110180476D02*
X125332380Y-110751904D01*
X125332380Y-110466190D02*
X124332380Y-110466190D01*
X124475238Y-110561428D01*
X124570476Y-110656666D01*
X124618095Y-110751904D01*
X124332380Y-109561428D02*
X124332380Y-109466190D01*
X124380000Y-109370952D01*
X124427619Y-109323333D01*
X124522857Y-109275714D01*
X124713333Y-109228095D01*
X124951428Y-109228095D01*
X125141904Y-109275714D01*
X125237142Y-109323333D01*
X125284761Y-109370952D01*
X125332380Y-109466190D01*
X125332380Y-109561428D01*
X125284761Y-109656666D01*
X125237142Y-109704285D01*
X125141904Y-109751904D01*
X124951428Y-109799523D01*
X124713333Y-109799523D01*
X124522857Y-109751904D01*
X124427619Y-109704285D01*
X124380000Y-109656666D01*
X124332380Y-109561428D01*
X125332380Y-98528095D02*
X124332380Y-98528095D01*
X124332380Y-98290000D01*
X124380000Y-98147142D01*
X124475238Y-98051904D01*
X124570476Y-98004285D01*
X124760952Y-97956666D01*
X124903809Y-97956666D01*
X125094285Y-98004285D01*
X125189523Y-98051904D01*
X125284761Y-98147142D01*
X125332380Y-98290000D01*
X125332380Y-98528095D01*
X125332380Y-97480476D02*
X125332380Y-97290000D01*
X125284761Y-97194761D01*
X125237142Y-97147142D01*
X125094285Y-97051904D01*
X124903809Y-97004285D01*
X124522857Y-97004285D01*
X124427619Y-97051904D01*
X124380000Y-97099523D01*
X124332380Y-97194761D01*
X124332380Y-97385238D01*
X124380000Y-97480476D01*
X124427619Y-97528095D01*
X124522857Y-97575714D01*
X124760952Y-97575714D01*
X124856190Y-97528095D01*
X124903809Y-97480476D01*
X124951428Y-97385238D01*
X124951428Y-97194761D01*
X124903809Y-97099523D01*
X124856190Y-97051904D01*
X124760952Y-97004285D01*
X125332380Y-85828095D02*
X124332380Y-85828095D01*
X124332380Y-85590000D01*
X124380000Y-85447142D01*
X124475238Y-85351904D01*
X124570476Y-85304285D01*
X124760952Y-85256666D01*
X124903809Y-85256666D01*
X125094285Y-85304285D01*
X125189523Y-85351904D01*
X125284761Y-85447142D01*
X125332380Y-85590000D01*
X125332380Y-85828095D01*
X124760952Y-84685238D02*
X124713333Y-84780476D01*
X124665714Y-84828095D01*
X124570476Y-84875714D01*
X124522857Y-84875714D01*
X124427619Y-84828095D01*
X124380000Y-84780476D01*
X124332380Y-84685238D01*
X124332380Y-84494761D01*
X124380000Y-84399523D01*
X124427619Y-84351904D01*
X124522857Y-84304285D01*
X124570476Y-84304285D01*
X124665714Y-84351904D01*
X124713333Y-84399523D01*
X124760952Y-84494761D01*
X124760952Y-84685238D01*
X124808571Y-84780476D01*
X124856190Y-84828095D01*
X124951428Y-84875714D01*
X125141904Y-84875714D01*
X125237142Y-84828095D01*
X125284761Y-84780476D01*
X125332380Y-84685238D01*
X125332380Y-84494761D01*
X125284761Y-84399523D01*
X125237142Y-84351904D01*
X125141904Y-84304285D01*
X124951428Y-84304285D01*
X124856190Y-84351904D01*
X124808571Y-84399523D01*
X124760952Y-84494761D01*
X125332380Y-73128095D02*
X124332380Y-73128095D01*
X124332380Y-72890000D01*
X124380000Y-72747142D01*
X124475238Y-72651904D01*
X124570476Y-72604285D01*
X124760952Y-72556666D01*
X124903809Y-72556666D01*
X125094285Y-72604285D01*
X125189523Y-72651904D01*
X125284761Y-72747142D01*
X125332380Y-72890000D01*
X125332380Y-73128095D01*
X124332380Y-72223333D02*
X124332380Y-71556666D01*
X125332380Y-71985238D01*
X125332380Y-60428095D02*
X124332380Y-60428095D01*
X124332380Y-60190000D01*
X124380000Y-60047142D01*
X124475238Y-59951904D01*
X124570476Y-59904285D01*
X124760952Y-59856666D01*
X124903809Y-59856666D01*
X125094285Y-59904285D01*
X125189523Y-59951904D01*
X125284761Y-60047142D01*
X125332380Y-60190000D01*
X125332380Y-60428095D01*
X124332380Y-58999523D02*
X124332380Y-59190000D01*
X124380000Y-59285238D01*
X124427619Y-59332857D01*
X124570476Y-59428095D01*
X124760952Y-59475714D01*
X125141904Y-59475714D01*
X125237142Y-59428095D01*
X125284761Y-59380476D01*
X125332380Y-59285238D01*
X125332380Y-59094761D01*
X125284761Y-58999523D01*
X125237142Y-58951904D01*
X125141904Y-58904285D01*
X124903809Y-58904285D01*
X124808571Y-58951904D01*
X124760952Y-58999523D01*
X124713333Y-59094761D01*
X124713333Y-59285238D01*
X124760952Y-59380476D01*
X124808571Y-59428095D01*
X124903809Y-59475714D01*
X102472380Y-126468095D02*
X101472380Y-126468095D01*
X101472380Y-126230000D01*
X101520000Y-126087142D01*
X101615238Y-125991904D01*
X101710476Y-125944285D01*
X101900952Y-125896666D01*
X102043809Y-125896666D01*
X102234285Y-125944285D01*
X102329523Y-125991904D01*
X102424761Y-126087142D01*
X102472380Y-126230000D01*
X102472380Y-126468095D01*
X101472380Y-124991904D02*
X101472380Y-125468095D01*
X101948571Y-125515714D01*
X101900952Y-125468095D01*
X101853333Y-125372857D01*
X101853333Y-125134761D01*
X101900952Y-125039523D01*
X101948571Y-124991904D01*
X102043809Y-124944285D01*
X102281904Y-124944285D01*
X102377142Y-124991904D01*
X102424761Y-125039523D01*
X102472380Y-125134761D01*
X102472380Y-125372857D01*
X102424761Y-125468095D01*
X102377142Y-125515714D01*
X102472380Y-111228095D02*
X101472380Y-111228095D01*
X101472380Y-110990000D01*
X101520000Y-110847142D01*
X101615238Y-110751904D01*
X101710476Y-110704285D01*
X101900952Y-110656666D01*
X102043809Y-110656666D01*
X102234285Y-110704285D01*
X102329523Y-110751904D01*
X102424761Y-110847142D01*
X102472380Y-110990000D01*
X102472380Y-111228095D01*
X101805714Y-109799523D02*
X102472380Y-109799523D01*
X101424761Y-110037619D02*
X102139047Y-110275714D01*
X102139047Y-109656666D01*
X102472380Y-98528095D02*
X101472380Y-98528095D01*
X101472380Y-98290000D01*
X101520000Y-98147142D01*
X101615238Y-98051904D01*
X101710476Y-98004285D01*
X101900952Y-97956666D01*
X102043809Y-97956666D01*
X102234285Y-98004285D01*
X102329523Y-98051904D01*
X102424761Y-98147142D01*
X102472380Y-98290000D01*
X102472380Y-98528095D01*
X101472380Y-97623333D02*
X101472380Y-97004285D01*
X101853333Y-97337619D01*
X101853333Y-97194761D01*
X101900952Y-97099523D01*
X101948571Y-97051904D01*
X102043809Y-97004285D01*
X102281904Y-97004285D01*
X102377142Y-97051904D01*
X102424761Y-97099523D01*
X102472380Y-97194761D01*
X102472380Y-97480476D01*
X102424761Y-97575714D01*
X102377142Y-97623333D01*
X112268095Y-73322380D02*
X112268095Y-74131904D01*
X112315714Y-74227142D01*
X112363333Y-74274761D01*
X112458571Y-74322380D01*
X112649047Y-74322380D01*
X112744285Y-74274761D01*
X112791904Y-74227142D01*
X112839523Y-74131904D01*
X112839523Y-73322380D01*
X113791904Y-73322380D02*
X113315714Y-73322380D01*
X113268095Y-73798571D01*
X113315714Y-73750952D01*
X113410952Y-73703333D01*
X113649047Y-73703333D01*
X113744285Y-73750952D01*
X113791904Y-73798571D01*
X113839523Y-73893809D01*
X113839523Y-74131904D01*
X113791904Y-74227142D01*
X113744285Y-74274761D01*
X113649047Y-74322380D01*
X113410952Y-74322380D01*
X113315714Y-74274761D01*
X113268095Y-74227142D01*
X112268095Y-53002380D02*
X112268095Y-53811904D01*
X112315714Y-53907142D01*
X112363333Y-53954761D01*
X112458571Y-54002380D01*
X112649047Y-54002380D01*
X112744285Y-53954761D01*
X112791904Y-53907142D01*
X112839523Y-53811904D01*
X112839523Y-53002380D01*
X113744285Y-53335714D02*
X113744285Y-54002380D01*
X113506190Y-52954761D02*
X113268095Y-53669047D01*
X113887142Y-53669047D01*
X157762380Y-107322857D02*
X157286190Y-107656190D01*
X157762380Y-107894285D02*
X156762380Y-107894285D01*
X156762380Y-107513333D01*
X156810000Y-107418095D01*
X156857619Y-107370476D01*
X156952857Y-107322857D01*
X157095714Y-107322857D01*
X157190952Y-107370476D01*
X157238571Y-107418095D01*
X157286190Y-107513333D01*
X157286190Y-107894285D01*
X157762380Y-106370476D02*
X157762380Y-106941904D01*
X157762380Y-106656190D02*
X156762380Y-106656190D01*
X156905238Y-106751428D01*
X157000476Y-106846666D01*
X157048095Y-106941904D01*
X156762380Y-105513333D02*
X156762380Y-105703809D01*
X156810000Y-105799047D01*
X156857619Y-105846666D01*
X157000476Y-105941904D01*
X157190952Y-105989523D01*
X157571904Y-105989523D01*
X157667142Y-105941904D01*
X157714761Y-105894285D01*
X157762380Y-105799047D01*
X157762380Y-105608571D01*
X157714761Y-105513333D01*
X157667142Y-105465714D01*
X157571904Y-105418095D01*
X157333809Y-105418095D01*
X157238571Y-105465714D01*
X157190952Y-105513333D01*
X157143333Y-105608571D01*
X157143333Y-105799047D01*
X157190952Y-105894285D01*
X157238571Y-105941904D01*
X157333809Y-105989523D01*
X162842380Y-107322857D02*
X162366190Y-107656190D01*
X162842380Y-107894285D02*
X161842380Y-107894285D01*
X161842380Y-107513333D01*
X161890000Y-107418095D01*
X161937619Y-107370476D01*
X162032857Y-107322857D01*
X162175714Y-107322857D01*
X162270952Y-107370476D01*
X162318571Y-107418095D01*
X162366190Y-107513333D01*
X162366190Y-107894285D01*
X162842380Y-106370476D02*
X162842380Y-106941904D01*
X162842380Y-106656190D02*
X161842380Y-106656190D01*
X161985238Y-106751428D01*
X162080476Y-106846666D01*
X162128095Y-106941904D01*
X161842380Y-106037142D02*
X161842380Y-105370476D01*
X162842380Y-105799047D01*
X102472380Y-85828095D02*
X101472380Y-85828095D01*
X101472380Y-85590000D01*
X101520000Y-85447142D01*
X101615238Y-85351904D01*
X101710476Y-85304285D01*
X101900952Y-85256666D01*
X102043809Y-85256666D01*
X102234285Y-85304285D01*
X102329523Y-85351904D01*
X102424761Y-85447142D01*
X102472380Y-85590000D01*
X102472380Y-85828095D01*
X101567619Y-84875714D02*
X101520000Y-84828095D01*
X101472380Y-84732857D01*
X101472380Y-84494761D01*
X101520000Y-84399523D01*
X101567619Y-84351904D01*
X101662857Y-84304285D01*
X101758095Y-84304285D01*
X101900952Y-84351904D01*
X102472380Y-84923333D01*
X102472380Y-84304285D01*
X102472380Y-73128095D02*
X101472380Y-73128095D01*
X101472380Y-72890000D01*
X101520000Y-72747142D01*
X101615238Y-72651904D01*
X101710476Y-72604285D01*
X101900952Y-72556666D01*
X102043809Y-72556666D01*
X102234285Y-72604285D01*
X102329523Y-72651904D01*
X102424761Y-72747142D01*
X102472380Y-72890000D01*
X102472380Y-73128095D01*
X102472380Y-71604285D02*
X102472380Y-72175714D01*
X102472380Y-71890000D02*
X101472380Y-71890000D01*
X101615238Y-71985238D01*
X101710476Y-72080476D01*
X101758095Y-72175714D01*
X145137142Y-71286666D02*
X145184761Y-71334285D01*
X145232380Y-71477142D01*
X145232380Y-71572380D01*
X145184761Y-71715238D01*
X145089523Y-71810476D01*
X144994285Y-71858095D01*
X144803809Y-71905714D01*
X144660952Y-71905714D01*
X144470476Y-71858095D01*
X144375238Y-71810476D01*
X144280000Y-71715238D01*
X144232380Y-71572380D01*
X144232380Y-71477142D01*
X144280000Y-71334285D01*
X144327619Y-71286666D01*
X145232380Y-70334285D02*
X145232380Y-70905714D01*
X145232380Y-70620000D02*
X144232380Y-70620000D01*
X144375238Y-70715238D01*
X144470476Y-70810476D01*
X144518095Y-70905714D01*
X147677142Y-71286666D02*
X147724761Y-71334285D01*
X147772380Y-71477142D01*
X147772380Y-71572380D01*
X147724761Y-71715238D01*
X147629523Y-71810476D01*
X147534285Y-71858095D01*
X147343809Y-71905714D01*
X147200952Y-71905714D01*
X147010476Y-71858095D01*
X146915238Y-71810476D01*
X146820000Y-71715238D01*
X146772380Y-71572380D01*
X146772380Y-71477142D01*
X146820000Y-71334285D01*
X146867619Y-71286666D01*
X146867619Y-70905714D02*
X146820000Y-70858095D01*
X146772380Y-70762857D01*
X146772380Y-70524761D01*
X146820000Y-70429523D01*
X146867619Y-70381904D01*
X146962857Y-70334285D01*
X147058095Y-70334285D01*
X147200952Y-70381904D01*
X147772380Y-70953333D01*
X147772380Y-70334285D01*
X147717142Y-114506666D02*
X147764761Y-114554285D01*
X147812380Y-114697142D01*
X147812380Y-114792380D01*
X147764761Y-114935238D01*
X147669523Y-115030476D01*
X147574285Y-115078095D01*
X147383809Y-115125714D01*
X147240952Y-115125714D01*
X147050476Y-115078095D01*
X146955238Y-115030476D01*
X146860000Y-114935238D01*
X146812380Y-114792380D01*
X146812380Y-114697142D01*
X146860000Y-114554285D01*
X146907619Y-114506666D01*
X147145714Y-113649523D02*
X147812380Y-113649523D01*
X146764761Y-113887619D02*
X147479047Y-114125714D01*
X147479047Y-113506666D01*
X147717142Y-104346666D02*
X147764761Y-104394285D01*
X147812380Y-104537142D01*
X147812380Y-104632380D01*
X147764761Y-104775238D01*
X147669523Y-104870476D01*
X147574285Y-104918095D01*
X147383809Y-104965714D01*
X147240952Y-104965714D01*
X147050476Y-104918095D01*
X146955238Y-104870476D01*
X146860000Y-104775238D01*
X146812380Y-104632380D01*
X146812380Y-104537142D01*
X146860000Y-104394285D01*
X146907619Y-104346666D01*
X146812380Y-103441904D02*
X146812380Y-103918095D01*
X147288571Y-103965714D01*
X147240952Y-103918095D01*
X147193333Y-103822857D01*
X147193333Y-103584761D01*
X147240952Y-103489523D01*
X147288571Y-103441904D01*
X147383809Y-103394285D01*
X147621904Y-103394285D01*
X147717142Y-103441904D01*
X147764761Y-103489523D01*
X147812380Y-103584761D01*
X147812380Y-103822857D01*
X147764761Y-103918095D01*
X147717142Y-103965714D01*
X134651904Y-119042380D02*
X134651904Y-119851904D01*
X134699523Y-119947142D01*
X134747142Y-119994761D01*
X134842380Y-120042380D01*
X135032857Y-120042380D01*
X135128095Y-119994761D01*
X135175714Y-119947142D01*
X135223333Y-119851904D01*
X135223333Y-119042380D01*
X136223333Y-120042380D02*
X135651904Y-120042380D01*
X135937619Y-120042380D02*
X135937619Y-119042380D01*
X135842380Y-119185238D01*
X135747142Y-119280476D01*
X135651904Y-119328095D01*
X136842380Y-119042380D02*
X136937619Y-119042380D01*
X137032857Y-119090000D01*
X137080476Y-119137619D01*
X137128095Y-119232857D01*
X137175714Y-119423333D01*
X137175714Y-119661428D01*
X137128095Y-119851904D01*
X137080476Y-119947142D01*
X137032857Y-119994761D01*
X136937619Y-120042380D01*
X136842380Y-120042380D01*
X136747142Y-119994761D01*
X136699523Y-119947142D01*
X136651904Y-119851904D01*
X136604285Y-119661428D01*
X136604285Y-119423333D01*
X136651904Y-119232857D01*
X136699523Y-119137619D01*
X136747142Y-119090000D01*
X136842380Y-119042380D01*
M02*
