M48
; DRILL file {KiCad 5.1.4-5.1.4} date Sun 18 Aug 2019 00:14:35 AEST
; FORMAT={-:-/ absolute / inch / decimal}
; #@! TF.CreationDate,2019-08-18T00:14:35+10:00
; #@! TF.GenerationSoftware,Kicad,Pcbnew,5.1.4-5.1.4
; #@! TF.FileFunction,Plated,1,2,PTH
FMAT,2
INCH
T1C0.0197
T2C0.0315
T3C0.0354
T4C0.0394
T5C0.0433
T6C0.1378
%
G90
G05
T1
X5.7252Y-2.5
X5.8Y-2.5
T2
X5.7Y-4.2
X5.7Y-4.6
X4.3Y-4.8
X4.3Y-4.9
X4.3Y-5.0
X4.3Y-5.1
X4.3Y-5.2
X4.3Y-5.3
X4.3Y-5.4
X4.6Y-4.8
X4.6Y-4.9
X4.6Y-5.0
X4.6Y-5.1
X4.6Y-5.2
X4.6Y-5.3
X4.6Y-5.4
X3.5031Y-3.8
X3.7Y-3.8
X3.4Y-3.0
X3.4Y-3.1
X3.4Y-3.2
X3.4Y-3.3
X3.4Y-3.4
X3.4Y-3.5
X3.4Y-3.6
X3.7Y-3.0
X3.7Y-3.1
X3.7Y-3.2
X3.7Y-3.3
X3.7Y-3.4
X3.7Y-3.5
X3.7Y-3.6
X5.7Y-2.6
X5.7Y-2.6984
X5.0Y-3.4
X5.0Y-3.5
X5.0Y-3.6
X5.0Y-3.7
X5.0Y-3.8
X5.0Y-3.9
X5.0Y-4.0
X5.0Y-4.1
X5.0Y-4.2
X4.3Y-2.2
X4.3Y-2.3
X4.3Y-2.4
X4.3Y-2.5
X4.3Y-2.6
X4.3Y-2.7
X4.3Y-2.8
X4.6Y-2.2
X4.6Y-2.3
X4.6Y-2.4
X4.6Y-2.5
X4.6Y-2.6
X4.6Y-2.7
X4.6Y-2.8
X4.4031Y-3.8
X4.6Y-3.8
X5.3031Y-3.8
X5.5Y-3.8
X4.1Y-3.4
X4.1Y-3.5
X4.1Y-3.6
X4.1Y-3.7
X4.1Y-3.8
X4.1Y-3.9
X4.1Y-4.0
X4.1Y-4.1
X4.1Y-4.2
X4.3Y-3.0
X4.3Y-3.1
X4.3Y-3.2
X4.3Y-3.3
X4.3Y-3.4
X4.3Y-3.5
X4.3Y-3.6
X4.6Y-3.0
X4.6Y-3.1
X4.6Y-3.2
X4.6Y-3.3
X4.6Y-3.4
X4.6Y-3.5
X4.6Y-3.6
X5.8Y-2.6
X5.8Y-2.6984
X5.9Y-4.4031
X5.9Y-4.6
X6.4Y-2.3
X6.4Y-2.7
X5.9Y-3.0
X5.9Y-3.1
X5.9Y-3.2
X5.9Y-3.3
X5.9Y-3.4
X5.9Y-3.5
X5.9Y-3.6
X6.2Y-3.0
X6.2Y-3.1
X6.2Y-3.2
X6.2Y-3.3
X6.2Y-3.4
X6.2Y-3.5
X6.2Y-3.6
X5.9Y-4.0031
X5.9Y-4.2
X5.2Y-3.0
X5.2Y-3.1
X5.2Y-3.2
X5.2Y-3.3
X5.2Y-3.4
X5.2Y-3.5
X5.2Y-3.6
X5.5Y-3.0
X5.5Y-3.1
X5.5Y-3.2
X5.5Y-3.3
X5.5Y-3.4
X5.5Y-3.5
X5.5Y-3.6
X5.2Y-2.1
X5.2Y-2.2
X5.2Y-2.3
X5.2Y-2.4
X5.2Y-2.5
X5.2Y-2.6
X5.2Y-2.7
X5.2Y-2.8
X5.5Y-2.1
X5.5Y-2.2
X5.5Y-2.3
X5.5Y-2.4
X5.5Y-2.5
X5.5Y-2.6
X5.5Y-2.7
X5.5Y-2.8
X3.4Y-2.2
X3.4Y-2.3
X3.4Y-2.4
X3.4Y-2.5
X3.4Y-2.6
X3.4Y-2.7
X3.4Y-2.8
X3.7Y-2.2
X3.7Y-2.3
X3.7Y-2.4
X3.7Y-2.5
X3.7Y-2.6
X3.7Y-2.7
X3.7Y-2.8
X6.6Y-2.5031
X6.6Y-2.7
X6.1Y-4.0
X6.1Y-4.4
X6.1Y-4.6
X6.1Y-4.7969
X4.4031Y-2.0
X4.6Y-2.0
X6.4Y-4.7
X6.4Y-4.7984
X3.4Y-4.0
X3.4Y-4.1
X3.4Y-4.2
X3.4Y-4.3
X3.4Y-4.4
X3.4Y-4.5
X3.4Y-4.6
X3.7Y-4.0
X3.7Y-4.1
X3.7Y-4.2
X3.7Y-4.3
X3.7Y-4.4
X3.7Y-4.5
X3.7Y-4.6
X6.0Y-2.3
X6.0Y-2.7
X6.3Y-4.0
X6.3Y-4.4
X6.2Y-2.3
X6.2Y-2.7
X4.3Y-4.0
X4.3Y-4.1
X4.3Y-4.2
X4.3Y-4.3
X4.3Y-4.4
X4.3Y-4.5
X4.3Y-4.6
X4.6Y-4.0
X4.6Y-4.1
X4.6Y-4.2
X4.6Y-4.3
X4.6Y-4.4
X4.6Y-4.5
X4.6Y-4.6
X3.7031Y-2.0
X3.9Y-2.0
X5.3031Y-1.9
X5.5Y-1.9
X5.2Y-4.0
X5.2Y-4.1
X5.2Y-4.2
X5.2Y-4.3
X5.2Y-4.4
X5.2Y-4.5
X5.2Y-4.6
X5.5Y-4.0
X5.5Y-4.1
X5.5Y-4.2
X5.5Y-4.3
X5.5Y-4.4
X5.5Y-4.5
X5.5Y-4.6
X5.2Y-4.8
X5.2Y-4.9
X5.2Y-5.0
X5.2Y-5.1
X5.2Y-5.2
X5.2Y-5.3
X5.2Y-5.4
X5.5Y-4.8
X5.5Y-4.9
X5.5Y-5.0
X5.5Y-5.1
X5.5Y-5.2
X5.5Y-5.3
X5.5Y-5.4
T3
X4.8Y-2.8
X4.8Y-2.9
X3.9Y-4.9
X3.9Y-5.0
X3.9Y-3.3
X3.9Y-3.4
X5.7Y-3.8
X5.7Y-3.9
X4.8Y-3.3
X4.8Y-3.4
X4.8Y-4.3
X4.8Y-4.4
X3.9Y-2.8
X3.9Y-2.9
X4.8Y-2.3
X4.8Y-2.4
X3.9Y-3.8
X3.9Y-3.9
X4.8Y-4.9
X4.8Y-5.0
X4.8Y-3.8
X4.8Y-3.9
X3.9Y-4.3
X3.9Y-4.4
T4
X5.8Y-5.1
X5.9Y-5.1
X6.0Y-5.1
X6.1Y-5.1
X6.2Y-5.1
X6.21Y-5.4
X5.79Y-5.4
T5
X6.5228Y-3.55
X6.5228Y-3.8059
X6.7Y-3.55
X6.7Y-3.8059
X6.5228Y-3.05
X6.5228Y-3.3059
X6.7Y-3.05
X6.7Y-3.3059
X6.5228Y-4.05
X6.5228Y-4.3059
X6.7Y-4.05
X6.7Y-4.3059
T6
X6.6Y-1.9
X6.6Y-5.4
X3.3Y-5.4
X3.3Y-1.9
T0
M30
